<svg width="67" height="80" viewBox="0 0 67 80" fill="none" xmlns="http://www.w3.org/2000/svg">
<g filter="url(#filter0_d_65_134)">
<path d="M51.0339 28.1828C51.0429 30.6967 50.3725 33.1658 49.0944 35.3323C48.481 36.3769 47.7358 37.3375 46.8799 38.1996C44.2312 40.8721 40.619 42.3715 36.8571 42.3623H36.7524V42.4073H23.7431C22.1957 42.3954 20.9298 43.6374 20.9149 45.1875V45.2325C20.9149 45.6154 20.9867 45.9956 21.1332 46.3487C21.4117 47.034 21.9532 47.5788 22.6356 47.863C22.9859 48.0098 23.3629 48.0846 23.7401 48.0786H29.4171C30.5545 48.0727 31.6826 48.2969 32.7302 48.7401C34.7741 49.5989 36.3993 51.2239 37.2582 53.2681C38.1412 55.3839 38.1412 57.7662 37.2582 59.882C36.8303 60.8906 36.2139 61.8064 35.4385 62.5814C34.6605 63.3565 33.7417 63.9761 32.7302 64.41C31.6826 64.8618 30.5545 65.0893 29.4171 65.0834H16.8207V59.4091H29.4171C30.9794 59.4091 32.2453 58.1462 32.2453 56.5839C32.2453 55.0218 30.9824 53.7559 29.4201 53.7529H23.7401C22.6057 53.7619 21.4806 53.5314 20.4389 53.0826C18.4039 52.2085 16.7818 50.5836 15.9109 48.5424C15.459 47.498 15.2316 46.3696 15.2376 45.2295C15.2286 44.0952 15.459 42.97 15.9109 41.9284C16.7848 39.8964 18.4069 38.2744 20.4389 37.4004C21.4836 36.9486 22.6057 36.7211 23.7431 36.727H35.9654L36.8571 36.6793C37.9945 36.6883 39.1226 36.4607 40.1702 36.0179C42.2141 35.1618 43.8393 33.5338 44.6982 31.4899C45.141 30.4423 45.3656 29.317 45.3596 28.1798C45.3656 27.0455 45.141 25.9203 44.6982 24.8788C44.2703 23.8702 43.6506 22.9545 42.8785 22.1793C42.1005 21.4012 41.1817 20.7817 40.1702 20.3478C39.1256 19.8959 37.9974 19.6684 36.8571 19.6774H34.0289V35.3264H28.3128V14.0002H36.8541C38.129 13.9942 39.3951 14.1647 40.622 14.5029C42.9924 15.1583 45.147 16.4183 46.8799 18.1601C47.7358 19.022 48.478 19.9856 49.0914 21.0271C50.3695 23.1939 51.0369 25.6629 51.0309 28.1768L51.0339 28.1828Z" fill="white"/>
<path d="M49.1909 60.9833C49.1939 61.4649 49.0981 61.9438 48.9037 62.3867C48.7182 62.8116 48.4549 63.1978 48.1227 63.524C47.7875 63.8503 47.3953 64.1106 46.9644 64.2961C46.0606 64.6793 45.0401 64.6793 44.1362 64.2961C43.2744 63.9311 42.5861 63.2488 42.2179 62.3867C41.8349 61.492 41.8349 60.4835 42.2179 59.5886C42.5829 58.7238 43.2714 58.0352 44.1362 57.6702C45.0401 57.287 46.0606 57.287 46.9644 57.6702C47.3953 57.8527 47.7875 58.116 48.1227 58.4423C48.4549 58.7715 48.7212 59.1606 48.9037 59.5886C49.0951 60.0284 49.1909 60.5044 49.1909 60.9833Z" fill="#CB4A68"/>
</g>
<defs>
<filter id="filter0_d_65_134" x="0.237305" y="-1" width="65.7969" height="81.0835" filterUnits="userSpaceOnUse" color-interpolation-filters="sRGB">
<feFlood flood-opacity="0" result="BackgroundImageFix"/>
<feColorMatrix in="SourceAlpha" type="matrix" values="0 0 0 0 0 0 0 0 0 0 0 0 0 0 0 0 0 0 127 0" result="hardAlpha"/>
<feOffset/>
<feGaussianBlur stdDeviation="7.5"/>
<feComposite in2="hardAlpha" operator="out"/>
<feColorMatrix type="matrix" values="0 0 0 0 0.0958333 0 0 0 0 0.0634896 0 0 0 0 0.0958333 0 0 0 1 0"/>
<feBlend mode="normal" in2="BackgroundImageFix" result="effect1_dropShadow_65_134"/>
<feBlend mode="normal" in="SourceGraphic" in2="effect1_dropShadow_65_134" result="shape"/>
</filter>
</defs>
</svg>
