<svg width="84" height="143" viewBox="0 0 84 143" fill="none" xmlns="http://www.w3.org/2000/svg">
<g filter="url(#filter0_d_64_32)">
<path d="M16.4491 54.422C10.8785 62.5827 22.0196 80.7872 38.7312 74.0076C55.4428 67.1024 55.696 81.4149 51.1383 87.0646C43.0357 97.234 45.4411 108.784 45.4411 108.784C45.4411 108.784 48.6062 97.3595 61.2665 86.1857C78.6111 70.7433 62.2793 47.2658 42.1494 56.8074C26.4507 64.2148 25.3113 59.3184 25.1847 55.4264C25.0581 51.5344 31.5148 42.3694 31.5148 42.3694C31.5148 42.3694 21.893 46.2614 16.4491 54.422Z" fill="url(#paint0_linear_64_32)"/>
<path d="M28.2223 27.3037C34.1727 32.7023 40.6294 28.3081 43.1615 30.9446C49.365 36.8454 34.8057 51.409 34.8057 51.409C34.8057 51.409 56.708 44.3783 54.0493 29.8147C52.4035 20.9008 44.4275 19.6453 36.1983 21.7796C25.1838 24.6672 26.0701 15 26.0701 15C26.0701 15 22.0188 21.5285 28.2223 27.3037Z" fill="url(#paint1_linear_64_32)"/>
<path d="M39.3644 109.036C30.1224 98.2384 41.1369 83.1726 41.1369 83.1726C41.1369 83.1726 24.6785 87.5668 23.7923 97.7362C22.906 107.906 28.2234 108.784 32.1481 114.309C36.0727 119.958 33.4141 127.868 33.4141 127.868C33.4141 127.868 46.7074 117.698 39.3644 109.036Z" fill="url(#paint2_linear_64_32)"/>
</g>
<defs>
<filter id="filter0_d_64_32" x="0.2" y="0.2" width="83.1918" height="142.468" filterUnits="userSpaceOnUse" color-interpolation-filters="sRGB">
<feFlood flood-opacity="0" result="BackgroundImageFix"/>
<feColorMatrix in="SourceAlpha" type="matrix" values="0 0 0 0 0 0 0 0 0 0 0 0 0 0 0 0 0 0 127 0" result="hardAlpha"/>
<feOffset/>
<feGaussianBlur stdDeviation="7.4"/>
<feComposite in2="hardAlpha" operator="out"/>
<feColorMatrix type="matrix" values="0 0 0 0 0 0 0 0 0 0 0 0 0 0 0 0 0 0 1 0"/>
<feBlend mode="normal" in2="BackgroundImageFix" result="effect1_dropShadow_64_32"/>
<feBlend mode="normal" in="SourceGraphic" in2="effect1_dropShadow_64_32" result="shape"/>
</filter>
<linearGradient id="paint0_linear_64_32" x1="15" y1="42.3694" x2="68.5916" y2="42.3694" gradientUnits="userSpaceOnUse">
<stop stop-color="#00FF8F"/>
<stop offset="1" stop-color="#00A1FF"/>
</linearGradient>
<linearGradient id="paint1_linear_64_32" x1="24.7705" y1="15" x2="54.2732" y2="15" gradientUnits="userSpaceOnUse">
<stop stop-color="#00FF8F"/>
<stop offset="1" stop-color="#00A1FF"/>
</linearGradient>
<linearGradient id="paint2_linear_64_32" x1="23.6943" y1="83.1726" x2="41.5762" y2="83.1726" gradientUnits="userSpaceOnUse">
<stop stop-color="#00FF8F"/>
<stop offset="1" stop-color="#00A1FF"/>
</linearGradient>
</defs>
</svg>
