<svg width="154" height="70" viewBox="0 0 154 70" fill="none" xmlns="http://www.w3.org/2000/svg">
<g style="mix-blend-mode:luminosity">
<g opacity="0.21">
<path opacity="0.21" d="M52.7925 49.4867C53.0553 49.5893 53.1363 49.7571 53.0318 49.9935C51.2652 54.0578 49.5528 56.7858 47.8942 58.1779C47.6555 58.3862 47.4054 58.5808 47.1447 58.761C46.8682 58.9942 46.5615 59.1902 46.2331 59.3442C46.0784 59.3973 45.9432 59.4356 45.8468 59.462L45.7694 59.5003H45.383C45.3205 59.5023 45.2582 59.489 45.2016 59.462C45.0794 59.4452 44.9602 59.4131 44.8461 59.3669C44.7901 59.3412 44.7383 59.3078 44.6918 59.2678C44.6321 59.2381 44.5782 59.1982 44.5333 59.1496L44.4135 59.0354L44.2937 58.9172C44.2338 58.834 44.1678 58.7551 44.0968 58.6811C43.9368 58.4437 43.8069 58.1875 43.7105 57.919C43.5639 57.5912 43.445 57.2524 43.3549 56.9053C43.1966 56.2575 43.0767 55.709 42.9997 55.267C42.9726 55.0077 42.9378 54.7297 42.8993 54.4326C42.8605 54.1354 42.8257 53.861 42.8026 53.6134C42.7795 53.3654 42.741 53.0874 42.7021 52.775C42.6636 52.4627 42.6288 52.1883 42.6017 51.9558C42.5786 51.6167 42.509 51.1135 42.4049 50.4317C42.3546 50.2487 42.3003 50.0278 42.2464 49.7687C42.1922 49.5095 42.142 49.3153 42.0878 49.1056C41.9063 48.614 41.7597 48.2637 41.6553 48.054C41.4761 47.7149 41.2351 47.4114 40.9445 47.1585C40.8133 47.0291 40.6663 46.8993 40.508 46.7775C40.1551 46.9661 39.7851 47.1218 39.4032 47.2424C38.8679 47.4325 38.3091 47.5505 37.7419 47.5927C37.5916 47.5983 37.441 47.5855 37.294 47.5547C37.1447 47.5561 36.9968 47.53 36.8575 47.4784C36.7183 47.4567 36.586 47.4031 36.4711 47.3223C36.3513 47.2381 36.2672 47.1133 36.2354 46.9716C36.1815 46.9311 36.139 46.8775 36.1113 46.8161C36.0838 46.755 36.0718 46.688 36.0771 46.6213C36.0928 46.405 36.1695 46.1974 36.2988 46.0214C36.4276 45.8456 36.6037 45.709 36.8073 45.6268C37.3332 45.3425 37.9264 45.2005 38.526 45.2153C38.8159 45.2153 39.1829 45.2153 39.6311 45.1771L40.0677 44.6702C40.5659 44.0722 41.0409 43.4512 41.4892 42.7993C41.6476 42.5937 42.0801 41.9039 42.7949 40.7343C43.746 39.1683 44.5899 37.5414 45.3214 35.8647C45.7034 35.0538 46.0339 34.2204 46.3104 33.3688C46.3415 33.3064 46.3673 33.2414 46.3874 33.1743L46.4687 32.9382C46.4918 32.862 46.5149 32.7972 46.5267 32.7439C46.538 32.6905 46.5615 32.6296 46.5846 32.5496C46.6091 32.4796 46.6295 32.4084 46.6462 32.3362C46.6526 32.2652 46.6526 32.1939 46.6462 32.1228C46.765 31.7419 46.8441 31.3499 46.8818 30.9531C47.0158 30.3095 47.0158 29.6457 46.8818 29.0022C46.8189 28.6683 46.6877 28.3506 46.4955 28.0686L46.457 27.9886L46.376 27.9124C46.3405 27.8579 46.302 27.8057 46.2602 27.7562C46.2254 27.7236 46.1845 27.6978 46.1403 27.6799L46.063 27.5618C45.589 27.1975 45.0526 26.92 44.4791 26.7426C44.1661 26.6397 43.9539 26.575 43.8494 26.5483C43.7322 26.5265 43.6134 26.5137 43.4943 26.5102C43.4035 26.4835 43.3067 26.4835 43.216 26.5102C42.7808 26.5281 42.3583 26.6595 41.9914 26.8912C40.9401 27.5938 39.9903 28.4333 39.1675 29.387C38.0557 30.6185 37.0443 31.9346 36.1427 33.323C35.2753 34.6761 34.5224 36.0972 33.8906 37.5715C33.7052 38.6881 33.5043 39.7662 33.3381 40.8067C32.7329 44.523 32.3118 47.5102 32.0749 49.7687C31.9397 51.0947 31.8624 52.1464 31.8354 52.9272C31.8317 53.2518 31.8459 53.5761 31.8779 53.899C31.8706 54.0436 31.8836 54.1886 31.9166 54.3296L31.8354 54.4058C31.8203 54.4071 31.8057 54.4118 31.7925 54.419C31.7791 54.4263 31.7675 54.4359 31.7581 54.4477C31.7463 54.4567 31.7368 54.4683 31.7301 54.4814C31.7234 54.4946 31.7198 54.5092 31.7195 54.524V55.0305H31.5766C31.5337 55.0101 31.4935 54.9846 31.4568 54.9546C31.3979 54.9239 31.3444 54.8839 31.2984 54.8364C31.2092 54.7162 31.1304 54.5887 31.0628 54.4553C31.0355 54.3467 30.9953 54.2421 30.9431 54.143C30.8834 53.9258 30.8433 53.7039 30.8233 53.48C30.7359 53.0811 30.6701 52.6776 30.6262 52.2721C30.549 51.5454 30.4833 50.7262 30.4292 49.8142C30.3752 48.3614 30.388 46.7508 30.4679 44.9829C30.5503 42.28 30.7743 39.3829 31.1401 36.2913C31.3796 34.1474 31.6693 32.0491 32.0092 29.9967L32.3955 27.619C32.4416 27.3597 32.5662 27.1204 32.7532 26.9326C32.9401 26.7448 33.1804 26.6175 33.4425 26.5673C33.7122 26.5009 33.9934 26.4927 34.2669 26.5433C34.5401 26.5939 34.7992 26.7022 35.0262 26.8607C35.2535 26.9964 35.4313 27.1997 35.5341 27.4414C35.6369 27.6832 35.6593 27.9508 35.5981 28.2058C35.5981 28.282 35.361 29.594 34.8873 32.1419C34.7276 33.0005 34.5692 33.8324 34.4119 34.6377C35.4106 32.8466 36.5742 31.1501 37.889 29.5699C39.2049 27.9847 40.4437 26.8671 41.605 26.2168C42.0634 25.9245 42.5635 25.701 43.0884 25.5538C43.2297 25.5018 43.376 25.4634 43.5251 25.4395L43.9114 25.3976C43.9887 25.3976 44.1276 25.3976 44.3245 25.3785H44.7109C45.5324 25.3191 46.3563 25.4495 47.1176 25.7596C47.2843 25.8046 47.4439 25.8713 47.5926 25.9577C47.6937 26.0295 47.7995 26.0944 47.9096 26.152C47.9866 26.2282 48.0409 26.2663 48.0681 26.2663C48.0981 26.2967 48.1319 26.3235 48.1685 26.3463C48.207 26.373 48.2264 26.3996 48.2264 26.4225L48.4041 26.5597L48.5816 26.735C48.6589 26.815 48.7131 26.8646 48.7402 26.8912C48.7818 26.9641 48.8353 27.0298 48.8986 27.0856L49.0569 27.2799C49.0874 27.316 49.1132 27.3556 49.1343 27.398C49.1547 27.4413 49.1822 27.4812 49.2154 27.5161C49.2656 27.5923 49.3583 27.7485 49.4895 27.981C49.7874 28.556 49.9883 29.175 50.0844 29.8138C50.158 30.2393 50.1969 30.67 50.2002 31.1017C50.2254 31.6477 50.1996 32.1949 50.1232 32.7363C50.0961 32.8926 50.0419 33.1555 49.9645 33.4983C49.8875 33.8413 49.8333 34.1613 49.8062 34.3175C49.534 35.344 49.1775 36.3471 48.7402 37.3162C47.9067 39.1956 46.8162 40.9533 45.4989 42.5405C44.906 43.2616 44.2606 43.9392 43.5676 44.5675C43.1812 44.9027 42.818 45.2038 42.5013 45.463C42.5431 45.4831 42.582 45.5089 42.6171 45.5389C42.9824 45.7087 43.3271 45.9183 43.6449 46.164C44.1929 46.5714 44.6616 47.0737 45.0279 47.6462C45.2077 47.9464 45.3663 48.2584 45.5029 48.5796C45.6503 48.8976 45.7791 49.2231 45.8893 49.5553C46.0674 50.1936 46.1965 50.8447 46.2756 51.5021C46.4071 52.7205 46.4071 53.9495 46.2756 55.1679C46.2703 55.2855 46.2558 55.4027 46.2331 55.5186C46.21 55.6747 46.1829 55.8613 46.1557 56.0822C46.1286 56.3034 46.1015 56.4939 46.0784 56.6501C46.0513 56.9358 46.0322 57.1797 46.0168 57.3894C46.0011 57.5987 46.0168 57.7133 46.0168 57.7398L45.978 57.778L45.9395 57.816L45.8582 57.8959H45.7925L45.9509 57.9722C46.1869 58.025 46.4329 58.0118 46.6619 57.9342C46.9194 57.8487 47.1598 57.7199 47.3727 57.5532C48.9177 56.283 50.5377 53.6589 52.2324 49.6808C52.2521 49.6287 52.2832 49.5811 52.3238 49.5418C52.3639 49.5028 52.4128 49.4728 52.4661 49.4543C52.5196 49.4358 52.5766 49.4289 52.6331 49.4345C52.6894 49.4401 52.7439 49.458 52.7925 49.4867ZM38.7657 46.0306H38.53C38.1508 46.018 37.7732 46.084 37.4212 46.225C37.1317 46.3584 36.9616 46.4879 36.9114 46.6061C36.9596 46.6292 37.0125 46.6421 37.0661 46.6441C37.265 46.6685 37.4668 46.6556 37.6609 46.6061C38.0674 46.4958 38.4444 46.2993 38.7657 46.0306Z" fill="#401B60"/>
<path opacity="0.21" d="M66.1271 48.782C66.181 48.7995 66.2303 48.8292 66.2705 48.8692C66.3106 48.9088 66.3408 48.9574 66.3585 49.0108C66.3763 49.0644 66.3809 49.1211 66.3722 49.1766C66.3636 49.2321 66.3418 49.2849 66.3087 49.3305C65.5918 50.6229 64.7579 51.8485 63.8168 52.9923C61.7566 55.5658 59.7683 57.0731 57.8524 57.5152C57.5018 57.6097 57.144 57.6747 56.7824 57.7097C56.23 57.7857 55.8744 57.8391 55.7161 57.8658C55.4533 57.8658 55.1755 57.8658 54.8855 57.8239C54.5765 57.7566 54.2728 57.6661 53.9779 57.5535C53.7044 57.4538 53.451 57.3082 53.2283 57.1229C52.8477 56.8535 52.5139 56.5253 52.2394 56.1512C51.7971 55.5404 51.4758 54.8526 51.2929 54.1242C51.1045 53.3984 51.0111 52.6519 51.0148 51.9026C51.0175 51.1538 51.1108 50.4082 51.2929 49.6811C51.4473 48.9591 51.6723 48.2531 51.9652 47.5739C52.2334 46.9142 52.5769 46.2864 52.989 45.703C53.3626 45.147 53.8008 44.6352 54.2946 44.1789C54.6113 43.9161 54.9127 43.6684 55.2022 43.4169C55.4132 43.2682 55.6384 43.1408 55.8744 43.0358C56.1285 42.8981 56.3934 42.7809 56.6666 42.6854C56.9176 42.5979 57.1761 42.5329 57.4389 42.491C57.8323 42.4398 58.2293 42.4259 58.6251 42.4491L58.7449 42.491H58.9263C59.0151 42.5187 59.1078 42.5316 59.2005 42.5292C59.3753 42.5527 59.547 42.5923 59.7144 42.6472C60.0613 42.736 60.3866 42.8919 60.6715 43.1058C60.9568 43.3198 61.1962 43.5875 61.3756 43.8933C61.7522 44.5705 61.8778 45.356 61.7308 46.1148C61.5005 47.6532 60.7144 49.0578 59.5173 50.0698C58.1477 51.2858 56.4158 52.0317 54.5805 52.1958C54.5293 52.6617 54.5022 53.1297 54.4992 53.5982C54.5075 54.0053 54.5604 54.4104 54.6575 54.806C54.7054 55.0242 54.7847 55.2349 54.8932 55.4311C54.9555 55.5585 55.0362 55.6767 55.1329 55.7814C55.2481 55.9214 55.3773 56.0492 55.5193 56.1624C55.6565 56.2773 55.8025 56.382 55.9555 56.4751C56.2096 56.6201 56.4908 56.7122 56.7824 56.7455C57.071 56.7997 57.3686 56.7864 57.6515 56.7076C58.5394 56.4794 59.3676 56.0676 60.0813 55.4994C60.8507 54.9298 61.5658 54.2923 62.2176 53.5945C62.8443 52.8995 63.4312 52.1704 63.9752 51.411C64.5547 50.6057 64.941 50.0341 65.1342 49.6963C65.2869 49.4441 65.4248 49.1832 65.5477 48.9151C65.5731 48.8653 65.6093 48.821 65.6538 48.7863C65.6983 48.7517 65.7502 48.7269 65.8055 48.7144C65.861 48.7014 65.9183 48.7008 65.9739 48.7127C66.0294 48.7242 66.0817 48.748 66.1271 48.782ZM54.8855 50.4584C54.8082 50.7708 54.7425 51.0835 54.6886 51.3958C55.8818 51.2407 57.0244 50.8213 58.0301 50.1688C58.8681 49.6501 59.5825 48.9587 60.1239 48.1419C60.5276 47.5039 60.8018 46.7947 60.9314 46.0537C61.0281 45.4772 60.9391 44.8855 60.6763 44.3619C60.556 44.1396 60.3914 43.9435 60.1922 43.7857C59.993 43.6278 59.7637 43.5113 59.5173 43.4436C59.2461 43.3673 58.9581 43.3673 58.687 43.4436C58.4231 43.4984 58.1785 43.6189 57.9759 43.7942C57.8356 43.9091 57.7061 44.0366 57.5896 44.1753C57.4312 44.3542 57.3 44.5104 57.2036 44.6401C57.1068 44.7696 57.0063 44.9792 56.9253 45.1087C56.7653 45.3458 56.6207 45.5928 56.4925 45.848C56.4115 46.0042 56.2146 46.4727 55.8975 47.2539C55.7663 47.5894 55.5809 48.1114 55.3452 48.8124C55.1095 49.5135 54.9666 50.0698 54.8855 50.4584Z" fill="#401B60"/>
<path opacity="0.21" d="M79.4012 49.9137C78.9719 50.33 78.4949 50.6959 77.9793 51.0032C77.5247 51.2909 77.0496 51.5454 76.5578 51.7653C76.1715 51.9331 75.596 52.1463 74.8582 52.4092C74.2515 52.6416 73.8036 52.8246 73.5136 52.954C73.6248 53.0877 73.7436 53.2149 73.8692 53.335C74.0778 53.5715 74.2555 53.7924 74.4216 53.9981C74.593 54.2362 74.7517 54.4828 74.8967 54.7374C75.0205 55.0306 75.1263 55.331 75.2137 55.6368C75.2679 55.8547 75.3064 56.0763 75.3295 56.2994C75.359 56.5983 75.3459 56.8997 75.2907 57.195C75.1893 57.8464 74.9235 58.4622 74.5183 58.9859C74.2074 59.426 73.8341 59.8203 73.4095 60.1557L73.1738 60.3918L72.9767 60.5444C72.8605 60.5919 72.7534 60.659 72.66 60.7425C72.1053 61.1291 71.5093 61.4547 70.8829 61.7143C70.4477 61.9147 69.9984 62.0841 69.5388 62.221C69.0484 62.3452 68.5402 62.3852 68.036 62.339C67.6329 62.259 67.262 62.0659 66.968 61.7826C66.6737 61.4993 66.4692 61.1381 66.3788 60.7425C66.1113 59.8847 66.1113 58.9674 66.3788 58.1096C66.5977 57.2141 67.046 56.3887 67.6807 55.7127C68.2221 55.2046 68.7892 54.7238 69.3804 54.2725C69.1692 54.115 69.0403 54.0235 68.9941 53.9981C68.2261 53.4519 67.4872 52.8668 66.7805 52.2454C66.4086 51.8816 66.0651 51.4906 65.7531 51.0756C65.3999 50.6341 65.1076 50.1487 64.8836 49.6316C64.7253 49.1922 64.6319 48.7329 64.6058 48.2673C64.5793 48.1134 64.5793 47.9563 64.6058 47.8024V47.5663C64.6068 47.4871 64.6212 47.4085 64.648 47.3338C64.6429 47.2546 64.656 47.175 64.6868 47.1014C64.6865 47.0212 64.6995 46.9413 64.7253 46.8653C64.7491 46.7191 64.7892 46.5757 64.8451 46.4384C65.0109 45.9009 65.2502 45.3884 65.5559 44.9143C65.6275 44.8271 65.6931 44.7353 65.7531 44.6399C65.8254 44.5682 65.8914 44.4906 65.9499 44.4074C66.0042 44.3543 66.0929 44.2512 66.2281 44.095C66.748 43.5713 67.3821 43.1712 68.0825 42.9252L68.2834 42.8493L68.4377 42.8109L68.7932 42.6927L69.1525 42.6128H69.2298C69.2672 42.5937 69.3078 42.5808 69.3493 42.5749H69.5077C69.5696 42.5444 69.6362 42.5253 69.7048 42.5177C69.7574 42.5128 69.8107 42.5128 69.8632 42.5177H70.2188C70.2515 42.5158 70.284 42.5091 70.3152 42.4986C70.347 42.4854 70.3811 42.4775 70.4156 42.4758H70.9023C72.378 42.5544 73.7738 43.2441 75.0898 44.5447C75.133 44.5804 75.1675 44.625 75.1912 44.6755C75.215 44.7257 75.2274 44.7805 75.2274 44.8363C75.2274 44.8918 75.215 44.9466 75.1912 44.9968C75.1675 45.0473 75.133 45.0919 75.0898 45.1275C75.0108 45.2035 74.9047 45.2457 74.7945 45.2457C74.684 45.2457 74.5783 45.2035 74.4989 45.1275C73.3399 43.9593 72.1284 43.3481 70.8638 43.295H70.5857L70.4273 43.333H70.3075L69.9944 43.4129C69.9 43.431 69.807 43.4565 69.7165 43.4891L69.5967 43.5694L69.4809 43.6074L69.2412 43.7635C69.1585 43.8094 69.0798 43.8616 69.0054 43.9197L68.8859 44.0379L68.8086 44.1142C68.432 44.4877 68.1247 44.9238 67.9007 45.4019C67.8722 45.4848 67.8321 45.5631 67.7812 45.6344C67.7577 45.6968 67.7447 45.7625 67.7423 45.8288C67.7049 45.889 67.6774 45.9543 67.6613 46.023C67.5515 46.3367 67.498 46.6669 67.503 46.9987V47.349C67.509 47.3903 67.522 47.4303 67.5414 47.4672V47.6997C67.5686 47.6997 67.584 47.7265 67.584 47.7796C67.6064 47.7991 67.6202 47.8265 67.6225 47.8559L67.8581 48.3244C68.2241 48.8161 68.6643 49.2493 69.1642 49.6085C69.6379 50.0025 70.2958 50.4838 71.138 51.0528C71.8746 51.5989 72.441 52.0268 72.8377 52.3369L74.5374 51.6738C75.2766 51.3893 75.829 51.1684 76.1946 51.0109C76.6462 50.8154 77.0827 50.5872 77.5006 50.3287C77.9679 50.0566 78.4055 49.7373 78.8062 49.3761C78.836 49.3288 78.8772 49.2893 78.9261 49.2612C78.975 49.2334 79.0302 49.2176 79.0868 49.2159C79.1434 49.214 79.1996 49.2259 79.2504 49.2506C79.3011 49.275 79.3449 49.3117 79.3781 49.3572C79.4225 49.388 79.4594 49.4289 79.4855 49.4762C79.5116 49.5234 79.5267 49.5759 79.5287 49.6297C79.531 49.6835 79.5207 49.7369 79.4986 49.7862C79.4764 49.8354 79.4429 49.879 79.4012 49.9137ZM72.1306 57.6714C72.2298 57.4297 72.271 57.1688 72.2505 56.9093C72.2067 56.801 72.1538 56.6963 72.0922 56.5969C72.0573 56.5088 72.0034 56.4293 71.9338 56.3645C71.8796 56.2882 71.8026 56.1816 71.6945 56.0518L71.3815 55.7394C71.2458 55.645 71.117 55.542 70.9951 55.4307C70.7594 55.2478 70.4544 55.0269 70.0871 54.7677C69.4457 55.2154 68.8387 55.7094 68.2716 56.2463C67.6961 56.8453 67.2957 57.5865 67.1126 58.3915C66.8977 59.0767 66.8977 59.8097 67.1126 60.4948C67.1678 60.7428 67.2941 60.9703 67.4762 61.15C67.6583 61.3296 67.8886 61.454 68.1404 61.5085C68.4953 61.5547 68.8555 61.4867 69.1679 61.314C69.5056 61.1129 69.8116 60.864 70.0757 60.5747C70.4668 60.1518 70.8354 59.7093 71.1805 59.2487C71.2375 59.1506 71.3048 59.0588 71.3815 58.9747C71.5398 58.7422 71.6285 58.5937 71.6556 58.5937C71.8401 58.3021 71.9941 57.9934 72.1153 57.6714H72.1306Z" fill="#401B60"/>
<path opacity="0.21" d="M92.841 48.782C92.895 48.7999 92.9434 48.8303 92.9835 48.8702C93.0228 48.9101 93.0531 48.9587 93.0703 49.0122C93.0875 49.0654 93.0916 49.1222 93.0826 49.1773C93.0736 49.2328 93.0515 49.2853 93.0187 49.3305C92.302 50.6229 91.4681 51.8485 90.5269 52.9923C88.4667 55.5658 86.4786 57.0731 84.5626 57.5152C84.2129 57.6093 83.8565 57.6744 83.4961 57.7097C82.9399 57.7857 82.5844 57.8391 82.4263 57.8658C82.1634 57.8658 81.8891 57.8658 81.5995 57.8239C81.2888 57.7573 80.9842 57.6667 80.6879 57.5535C80.4147 57.4538 80.1609 57.3082 79.9383 57.1229C79.5576 56.8535 79.2238 56.5253 78.9493 56.1512C78.5085 55.5397 78.1874 54.8519 78.0029 54.1242C77.8144 53.3984 77.721 52.6519 77.7247 51.9026C77.7274 51.1538 77.8208 50.4082 78.0029 49.6811C78.1606 48.96 78.3859 48.2544 78.6752 47.5739C78.9434 46.9135 79.2881 46.2855 79.7026 45.703C80.0739 45.146 80.5108 44.6342 81.0046 44.1789C81.3213 43.9161 81.6226 43.6684 81.9125 43.4169C82.124 43.2692 82.3485 43.1417 82.5844 43.0358C82.8326 42.8998 83.0906 42.7825 83.3569 42.6854C83.6083 42.5979 83.8672 42.5329 84.1301 42.491C84.5225 42.4398 84.9198 42.4259 85.3154 42.4491L85.435 42.491H85.5939C85.6824 42.5187 85.775 42.5316 85.8684 42.5292C86.0437 42.5527 86.2173 42.5923 86.3861 42.6472C86.7317 42.7366 87.0561 42.8925 87.3412 43.1064C87.6254 43.3204 87.8638 43.5879 88.0432 43.8933C88.4217 44.5698 88.547 45.356 88.3987 46.1148C88.1677 47.6532 87.3822 49.0578 86.1854 50.0698C84.8158 51.2858 83.0833 52.0317 81.248 52.1958C81.1968 52.6617 81.1696 53.1297 81.1669 53.5982C81.175 54.0053 81.2282 54.4104 81.3253 54.806C81.3725 55.0252 81.4532 55.2359 81.5646 55.4311C81.6256 55.5585 81.705 55.6764 81.8004 55.7814C81.9168 55.9204 82.0454 56.0482 82.1863 56.1624C82.3247 56.2767 82.4705 56.381 82.6229 56.4751C82.8785 56.6207 83.1611 56.7129 83.4535 56.7455C83.7427 56.7997 84.04 56.7864 84.3226 56.7076C85.2098 56.4777 86.0379 56.0663 86.753 55.4994C87.5198 54.9292 88.2341 54.2913 88.8853 53.5945C89.5119 52.8995 90.0984 52.1704 90.6432 51.411C91.2223 50.6057 91.6081 50.0341 91.8015 49.6963C91.9546 49.4441 92.0923 49.1832 92.2151 48.9151C92.2389 48.8573 92.2757 48.8061 92.3249 48.7658C92.3724 48.7256 92.4306 48.6979 92.492 48.6847C92.5543 48.6714 92.6182 48.6734 92.6788 48.6903C92.7394 48.7075 92.7951 48.7388 92.841 48.782ZM81.5995 50.4584C81.5184 50.7708 81.4525 51.0835 81.3986 51.3958C82.5918 51.2407 83.7345 50.8213 84.7404 50.1688C85.5792 49.6511 86.2935 48.9594 86.8341 48.1419C87.238 47.5039 87.5124 46.7947 87.641 46.0537C87.7385 45.4772 87.6492 44.8855 87.3862 44.3619C87.2667 44.1389 87.102 43.9428 86.9029 43.7847C86.7039 43.6269 86.4737 43.5109 86.2272 43.4436C85.9577 43.3673 85.6709 43.3673 85.4006 43.4436C85.1352 43.4967 84.8887 43.6176 84.6863 43.7942C84.5454 43.9091 84.416 44.0366 84.2997 44.1753C84.1416 44.3542 84.0097 44.5104 83.9139 44.6401C83.8164 44.7696 83.7165 44.9792 83.6354 45.1087C83.4756 45.3458 83.3306 45.5928 83.2029 45.848C83.1218 46.0042 82.9243 46.4727 82.6082 47.2539C82.4763 47.5894 82.2911 48.1114 82.0552 48.8124C81.8198 49.5135 81.6769 50.0698 81.5995 50.4584Z" fill="#401B60"/>
<path opacity="0.21" d="M105.759 49.3683C105.811 49.3802 105.861 49.4046 105.903 49.4393C105.945 49.4736 105.977 49.5176 105.998 49.5671C106.019 49.6167 106.028 49.6701 106.024 49.7239C106.02 49.7774 106.004 49.8293 105.975 49.8752C105.82 50.2902 105.588 50.8162 105.307 51.4525C105.025 52.0887 104.561 53.0453 103.943 54.3179C103.368 55.5121 102.707 56.6648 101.965 57.7664C101.466 58.5793 100.809 59.2876 100.034 59.8505C99.8985 59.9859 99.7372 60.0922 99.5586 60.1629C99.4619 60.2143 99.3546 60.2418 99.2457 60.2431C99.2113 60.2698 99.1687 60.2834 99.1261 60.2811H99.0442C98.9639 60.284 98.8844 60.2708 98.8091 60.2431C98.628 60.218 98.4609 60.1351 98.334 60.0067C98.2357 59.9083 98.1439 59.8039 98.0595 59.6943C97.9457 59.5239 97.8523 59.3414 97.781 59.1495C97.6942 58.816 97.6287 58.4776 97.5844 58.1358C97.5345 57.8142 97.5091 57.4896 97.5074 57.1641C97.4935 55.951 97.5721 54.7385 97.7425 53.5367C97.7696 53.2015 97.8163 52.8165 97.8818 52.3935C97.9473 51.9709 98.0129 51.5403 98.0792 51.1249C98.1447 50.7096 98.1906 50.3629 98.2176 50.035C98.2955 49.3608 98.3495 48.8387 98.3766 48.4765C98.1554 48.6043 97.944 48.747 97.7425 48.9034L97.3297 49.2158C97.156 49.3455 96.9783 49.475 96.7923 49.5968C96.6072 49.7186 96.4368 49.8596 96.2787 49.9779C95.9994 50.1634 95.7094 50.3328 95.4096 50.4847C95.0549 50.6475 94.6847 50.7752 94.3046 50.8658C94.094 50.8918 93.8827 50.9043 93.6714 50.9037H93.3159C93.1676 50.8802 93.0226 50.8407 92.8833 50.7858C92.6163 50.6805 92.3747 50.522 92.1723 50.3209C92.0085 50.1499 91.8774 49.9511 91.7857 49.7342C91.6202 49.3908 91.5145 49.0223 91.4728 48.6442C91.4171 48.3095 91.39 47.9703 91.3917 47.6309C91.4179 46.9672 91.5367 46.3105 91.7472 45.6798C91.9487 45.0224 92.2854 44.4126 92.7359 43.8889C92.9816 43.6164 93.2765 43.3915 93.605 43.2258C93.9523 43.073 94.3316 43.0062 94.71 43.0317C94.9271 43.0076 95.1458 43.0558 95.3318 43.1684C95.5185 43.2806 95.6611 43.4514 95.7381 43.6527C95.9773 44.2015 95.8233 45.0055 95.2859 46.0724C94.7666 47.1009 94.1514 48.0793 93.4469 48.9949C93.4469 49.0095 93.451 49.0239 93.4576 49.0371C93.4641 49.0504 93.4739 49.062 93.4854 49.0712H93.605C93.6992 49.0504 93.7918 49.0249 93.8835 48.9949C94.3382 48.8711 94.7576 48.6439 95.1082 48.3318L95.7995 47.7487C96.101 47.4859 96.3172 47.307 96.4483 47.2003C96.7653 46.9411 97.0438 46.7354 97.2789 46.5792C97.6434 46.3551 98.0448 46.1962 98.465 46.1104C98.5813 46.083 98.7009 46.0704 98.8205 46.0724H99.176C99.2702 46.0701 99.3636 46.083 99.4537 46.1104C99.611 46.1626 99.7576 46.2411 99.8871 46.3428C100.005 46.4343 100.111 46.5389 100.203 46.6552C100.314 46.7945 100.395 46.954 100.443 47.124C100.524 47.3505 100.575 47.586 100.597 47.8251C100.627 48.0053 100.642 48.1876 100.64 48.3698C100.64 48.629 100.64 48.9566 100.597 49.3455C100.57 49.6311 100.547 49.9435 100.52 50.279C100.466 50.7476 100.389 51.3458 100.284 52.0736C100.176 52.6718 100.084 53.2546 100.007 53.8262C99.9256 54.1657 99.8215 54.718 99.6896 55.4837C99.5586 56.2498 99.4537 56.8405 99.3726 57.2555C99.2915 57.6709 99.2801 57.9453 99.2571 58.0748C99.2301 58.3607 99.2145 58.6083 99.2145 58.814C99.2105 58.8949 99.2252 58.9758 99.2571 59.0505V59.1264H99.176V59.1647H99.2956C99.4021 59.1895 99.5152 59.1759 99.6127 59.1264C100.429 58.6186 101.389 57.3332 102.494 55.2705C103.51 53.4164 104.42 51.5083 105.221 49.5549C105.239 49.5034 105.268 49.4565 105.307 49.4176C105.345 49.3789 105.392 49.3492 105.443 49.3314C105.496 49.3132 105.551 49.3073 105.606 49.3135C105.66 49.3201 105.712 49.3386 105.759 49.3683ZM93.0955 48.1605C93.6468 47.3802 94.1358 46.5587 94.556 45.7026C94.9779 44.8467 95.1237 44.2752 94.9926 43.9879C94.964 43.912 94.8714 43.8736 94.7141 43.8736C94.484 43.9011 94.2652 43.9876 94.0809 44.1252C93.9032 44.2758 93.7443 44.4459 93.605 44.6321C93.3404 45.0742 93.1659 45.5636 93.0914 46.0724C92.9866 46.5862 92.9612 47.1128 93.0144 47.6345C93.0169 47.8128 93.0439 47.9895 93.0955 48.1605Z" fill="#401B60"/>
<path opacity="0.21" d="M116.942 49.2882C117.162 49.4443 117.186 49.6386 117 49.8749C116.86 50.078 116.707 50.2728 116.544 50.458C116.194 50.8229 115.805 51.1498 115.385 51.4334C114.887 51.8158 114.315 52.0945 113.704 52.2526C113.472 52.3025 113.233 52.3279 112.994 52.3289C112.927 52.327 112.86 52.314 112.797 52.2906C111.909 54.9757 110.939 56.7425 109.888 57.5908C109.868 57.6139 109.844 57.633 109.817 57.647C109.79 57.6605 109.76 57.6687 109.73 57.6711C109.564 57.8615 109.364 58.0193 109.138 58.1359C109.004 58.2145 108.857 58.2677 108.702 58.2921C108.608 58.2987 108.516 58.3112 108.424 58.3301C108.345 58.3225 108.266 58.3096 108.188 58.2921C107.847 58.2581 107.521 58.1373 107.242 57.9415C106.985 57.7704 106.758 57.5595 106.57 57.3164C106.252 56.9096 105.986 56.4655 105.777 55.9943C105.582 55.575 105.41 55.1451 105.264 54.7066C104.984 53.8824 104.787 53.0339 104.673 52.1727C104.538 51.4162 104.445 50.6529 104.395 49.8865C104.318 48.7318 104.318 47.5736 104.395 46.4189L104.476 45.0928C104.527 44.8567 104.723 44.689 105.067 44.5863C105.443 44.479 105.836 44.439 106.226 44.4681C106.604 44.4803 106.974 44.5741 107.312 44.7425C107.602 44.8987 107.748 45.0776 107.748 45.2873C107.721 45.383 107.707 45.4814 107.706 45.5805C107.705 45.6786 107.693 45.7757 107.667 45.8701C107.612 46.3921 107.562 46.8989 107.508 47.3942C107.377 49.1089 107.312 50.642 107.312 51.9934C107.304 52.8153 107.358 53.6368 107.47 54.4511C107.53 55.1318 107.691 55.8005 107.945 56.4365C107.949 56.478 107.962 56.5183 107.983 56.5543C107.995 56.5639 108.004 56.5758 108.01 56.5887C108.018 56.6018 108.021 56.6161 108.022 56.6306C108.056 56.6867 108.096 56.7392 108.142 56.7868C108.192 56.867 108.246 56.9433 108.3 57.0232L108.498 57.1374C108.56 57.1618 108.627 57.1761 108.694 57.1793C108.804 57.1721 108.911 57.145 109.011 57.0995C109.096 57.0968 109.178 57.0704 109.246 57.0232L109.328 56.9433L109.367 56.9812C110.291 56.2192 111.193 54.5567 112.071 51.9934C111.254 51.3737 110.846 50.1034 110.846 48.183C110.823 46.9498 111.024 45.7225 111.441 44.5596C111.939 43.2867 112.6 42.6543 113.415 42.6543C113.604 42.6524 113.789 42.7128 113.939 42.8261C114.089 42.9393 114.197 43.0988 114.246 43.2791C114.435 44.2862 114.442 45.3183 114.265 46.3274C114.069 47.7205 113.785 49.1 113.415 50.458C113.31 50.8391 113.206 51.1858 113.098 51.5477C113.259 51.5483 113.42 51.5226 113.573 51.4714C114.086 51.3377 114.564 51.0989 114.976 50.7704C115.33 50.5205 115.661 50.2401 115.965 49.9321C116.113 49.7657 116.252 49.59 116.378 49.4064C116.405 49.3595 116.442 49.3192 116.486 49.2876C116.53 49.2558 116.58 49.2337 116.634 49.2225C116.687 49.2112 116.742 49.2116 116.795 49.2228C116.848 49.234 116.898 49.2565 116.942 49.2882ZM112.337 51.1208C113.131 48.5221 113.539 46.363 113.562 44.6434C113.6 44.234 113.546 43.8216 113.404 43.4352C112.956 43.4633 112.56 43.918 112.218 44.7996C111.831 45.8754 111.643 47.0112 111.665 48.1527C111.665 49.5599 111.889 50.5495 112.337 51.1208Z" fill="#401B60"/>
<path opacity="0.21" d="M130.653 48.782C130.707 48.7999 130.755 48.8303 130.795 48.8702C130.835 48.9101 130.865 48.9587 130.882 49.0122C130.899 49.0654 130.904 49.1222 130.895 49.1773C130.886 49.2328 130.863 49.2853 130.831 49.3305C130.116 50.6229 129.282 51.8485 128.343 52.9923C126.282 55.5658 124.293 57.0734 122.375 57.5152C122.025 57.61 121.668 57.675 121.308 57.7097C120.756 57.786 120.4 57.8391 120.241 57.8658C119.979 57.8658 119.701 57.8658 119.411 57.8239C119.102 57.7573 118.798 57.6667 118.503 57.5535C118.222 57.4567 117.96 57.3108 117.731 57.1229C117.352 56.8525 117.02 56.5247 116.746 56.1512C116.304 55.5397 115.981 54.8523 115.795 54.1242C115.61 53.3978 115.518 52.6516 115.522 51.9026C115.524 51.1541 115.617 50.4086 115.795 49.6811C115.953 48.96 116.179 48.2544 116.468 47.5742C116.737 46.9142 117.082 46.2864 117.495 45.703C117.868 45.146 118.306 44.6342 118.801 44.1789C119.114 43.9161 119.419 43.6684 119.709 43.4169C119.92 43.2686 120.145 43.1408 120.381 43.0358C120.628 42.8991 120.887 42.7819 121.154 42.6854C121.41 42.5966 121.676 42.5316 121.945 42.491C122.339 42.4398 122.736 42.4259 123.131 42.4491L123.248 42.491H123.44C123.53 42.5184 123.625 42.5313 123.719 42.5292C123.893 42.5527 124.065 42.5923 124.232 42.6472C124.579 42.7353 124.904 42.8908 125.189 43.1048C125.473 43.3188 125.712 43.5869 125.89 43.8933C126.27 44.5692 126.396 45.356 126.245 46.1148C126.018 47.6532 125.233 49.0585 124.036 50.0698C122.665 51.2862 120.931 52.0321 119.095 52.1962C119.045 52.6617 119.019 53.13 119.017 53.5982C119.022 54.0057 119.075 54.4111 119.176 54.806C119.222 55.0249 119.301 55.2356 119.411 55.4311C119.472 55.5585 119.552 55.6764 119.647 55.7817C119.763 55.9201 119.893 56.0479 120.033 56.1628C120.17 56.2763 120.314 56.381 120.466 56.4751C120.722 56.6201 121.004 56.7122 121.297 56.7455C121.585 56.7997 121.883 56.7864 122.166 56.7076C123.053 56.4788 123.881 56.067 124.595 55.4998C125.364 54.9311 126.079 54.2932 126.728 53.5945C127.356 52.8995 127.944 52.1708 128.49 51.411C129.065 50.607 129.455 50.0354 129.649 49.6963C129.842 49.3573 129.984 49.0983 130.066 48.9154C130.091 48.8639 130.127 48.8187 130.172 48.7834C130.218 48.7477 130.27 48.7226 130.327 48.7098C130.383 48.6969 130.442 48.6969 130.498 48.7094C130.555 48.7216 130.607 48.7467 130.653 48.782ZM119.411 50.4584C119.334 50.7711 119.264 51.0835 119.214 51.3958C120.406 51.24 121.547 50.8207 122.552 50.1688C123.392 49.6521 124.106 48.9604 124.646 48.1419C125.052 47.5049 125.328 46.7957 125.457 46.0537C125.55 45.4769 125.46 44.8858 125.198 44.3619C125.079 44.1389 124.914 43.9425 124.715 43.7847C124.516 43.6264 124.286 43.5106 124.039 43.4436C123.768 43.3673 123.48 43.3673 123.208 43.4436C122.945 43.4974 122.7 43.6182 122.498 43.7942C122.356 43.9072 122.226 44.0349 122.112 44.1753C121.954 44.3542 121.818 44.5104 121.725 44.6401C121.632 44.7696 121.528 44.9792 121.451 45.1087C121.29 45.3458 121.144 45.5928 121.015 45.848C120.937 46.0029 120.74 46.4717 120.423 47.2539C120.292 47.5894 120.107 48.1114 119.867 48.8124C119.628 49.5135 119.489 50.0698 119.411 50.4584Z" fill="#401B60"/>
</g>
<g opacity="0.82">
<path opacity="0.82" d="M52.997 49.7499L53.3833 49.9061C53.6498 50.0127 53.7271 50.1805 53.6227 50.413C51.8637 54.4951 50.155 57.2258 48.4965 58.6052C48.2598 58.8163 48.0094 59.0124 47.7473 59.192C47.4721 59.4251 47.1667 59.6213 46.8393 59.7751C46.681 59.8283 46.5457 59.8666 46.453 59.893L46.3757 59.9313H45.9893C45.9281 59.9326 45.8672 59.9198 45.8119 59.893C45.6894 59.8765 45.5695 59.8432 45.4564 59.7939C45.3991 59.7702 45.3459 59.7379 45.298 59.6989C45.2384 59.6692 45.1849 59.6292 45.1397 59.5807L45.0198 59.4624L44.9 59.3482C44.841 59.2643 44.7751 59.1854 44.7031 59.1121C44.5437 58.8741 44.4142 58.6182 44.3168 58.3501C44.1701 58.0221 44.0513 57.6834 43.9612 57.3364C43.8029 56.6849 43.6834 56.1401 43.606 55.698C43.5789 55.4388 43.5441 55.1608 43.5056 54.8596C43.4667 54.5585 43.4322 54.288 43.4088 54.0404C43.3857 53.7927 43.3472 53.5148 43.3084 53.2021C43.2699 52.8897 43.2351 52.6193 43.212 52.3868C43.1849 52.0477 43.1192 51.5409 43.0111 50.8627C42.9609 50.6798 42.9067 50.4585 42.8528 50.1996C42.7985 49.9405 42.7483 49.7463 42.6981 49.5367C42.5126 49.045 42.366 48.6907 42.2615 48.485C42.0838 48.133 41.8401 47.8174 41.5431 47.5552C41.4119 47.4258 41.2649 47.296 41.1065 47.1742C40.755 47.3663 40.3848 47.5232 40.0017 47.6427C39.4661 47.8312 38.9077 47.9491 38.3406 47.9933C38.1953 47.9976 38.0503 47.9848 37.908 47.9554C37.7587 47.9567 37.6104 47.9293 37.4715 47.8751C37.3315 47.856 37.1986 47.8021 37.0851 47.7189C36.9646 47.6358 36.8802 47.5106 36.8494 47.3686C36.7955 47.3277 36.7527 47.2745 36.7249 47.2131C36.6971 47.152 36.6857 47.0846 36.6911 47.018C36.7075 46.8043 36.7828 46.5989 36.9097 46.4249C37.0366 46.251 37.2093 46.1146 37.4095 46.031C37.9358 45.7467 38.5291 45.6048 39.1286 45.6196C39.4186 45.6196 39.7855 45.6196 40.2334 45.5813L40.67 45.0748C41.1684 44.4765 41.6435 43.8554 42.0918 43.2036C42.2488 42.9979 42.684 42.3095 43.3974 41.1386C44.3485 39.5712 45.1925 37.9434 45.9237 36.2651C46.3067 35.4561 46.6368 34.6237 46.9126 33.7731C46.9441 33.7107 46.9699 33.6457 46.99 33.5789L47.071 33.3426C47.0945 33.2792 47.1139 33.2141 47.1289 33.1484C47.1289 33.0949 47.1638 33.0302 47.1909 32.9539C47.218 32.8777 47.2334 32.8054 47.2488 32.7406C47.2551 32.6683 47.2551 32.5956 47.2488 32.5234C47.3693 32.1441 47.4483 31.7532 47.4845 31.3574C47.6184 30.7138 47.6184 30.0501 47.4845 29.4065C47.4215 29.0726 47.2899 28.755 47.0981 28.4729L47.0596 28.3929L46.9783 28.3167C46.9441 28.2616 46.9053 28.2094 46.8624 28.1605C46.8273 28.1277 46.7868 28.1007 46.7426 28.0805L46.6656 27.9662C46.1922 27.6027 45.6572 27.3253 45.0854 27.1469C44.7687 27.0441 44.5561 26.9793 44.452 26.9526C44.3349 26.9307 44.216 26.918 44.0965 26.9145C44.0057 26.8878 43.909 26.8878 43.8183 26.9145C43.3834 26.9329 42.9609 27.0644 42.594 27.2955C41.5417 27.9955 40.5916 28.8338 39.7701 29.7875C38.6613 31.0215 37.6502 32.3373 36.7453 33.7236C35.8796 35.0777 35.1263 36.4985 34.4929 37.9721C34.3128 39.0924 34.1287 40.1708 33.9405 41.2073C33.3431 44.9312 32.9259 47.9223 32.689 50.1805C32.5576 51.5066 32.4778 52.5582 32.4494 53.3355C32.4457 53.661 32.4599 53.987 32.4919 54.3108C32.4846 54.4555 32.4977 54.6004 32.5306 54.7414L32.4494 54.8177C32.4201 54.8217 32.3929 54.8349 32.3723 54.856C32.3605 54.8659 32.351 54.8782 32.3444 54.892C32.3378 54.9055 32.3341 54.9207 32.3336 54.9359V55.4427H32.1752C32.1312 55.4223 32.0908 55.3955 32.0554 55.3625C31.9966 55.3335 31.943 55.2948 31.8971 55.2483C31.8081 55.1277 31.7293 55.0002 31.6614 54.8672C31.6334 54.7602 31.5932 54.6569 31.5416 54.5585C31.482 54.3415 31.4419 54.1196 31.4219 53.8955C31.3349 53.4966 31.2691 53.0935 31.2249 52.6876C31.1476 51.9612 31.0819 51.142 31.0279 50.2301C30.9738 48.7746 30.9867 47.1639 31.0665 45.3984C31.1489 42.6958 31.373 39.7987 31.7386 36.7071C31.9782 34.5758 32.2679 32.484 32.6078 30.4315L32.9942 28.0538C33.0349 27.7882 33.1589 27.5419 33.3487 27.3491C33.5384 27.1564 33.7845 27.0272 34.0527 26.9793C34.3218 26.9134 34.6024 26.9055 34.8749 26.9561C35.1477 27.0068 35.4062 27.1148 35.6325 27.2727C35.8598 27.4084 36.0379 27.6117 36.1407 27.8534C36.2431 28.0951 36.2656 28.3627 36.2043 28.6177C36.2043 28.6939 35.9673 30.006 35.4935 32.5538C35.3365 33.4099 35.1782 34.2443 35.0185 35.0572C36.0178 33.2679 37.1816 31.5728 38.4952 29.9933C39.8113 28.4082 41.05 27.2905 42.2113 26.6402C42.6609 26.3469 43.1534 26.1233 43.6716 25.9772C43.8122 25.9221 43.9585 25.8824 44.1082 25.859L44.4945 25.8209L44.9077 25.8019H45.294C46.1169 25.7387 46.9431 25.8693 47.7048 26.183C47.8698 26.2268 48.0282 26.2922 48.1758 26.3772C48.2759 26.4505 48.382 26.5155 48.4929 26.5716C48.5739 26.6516 48.6241 26.6897 48.6512 26.6897C48.6813 26.72 48.7151 26.7469 48.7516 26.7697C48.7901 26.7926 48.8095 26.8193 48.8095 26.8459L48.9873 26.9831L49.1647 27.1584C49.2461 27.2346 49.2963 27.2879 49.3231 27.3146C49.3656 27.387 49.4192 27.4526 49.4818 27.509L49.6402 27.7033C49.6706 27.7394 49.6964 27.779 49.7172 27.8214C49.7379 27.8637 49.765 27.9023 49.7985 27.9357C49.8487 28.0157 49.9414 28.1719 50.0727 28.4044C50.371 28.9791 50.5722 29.5983 50.6676 30.2372C50.7409 30.6614 50.7798 31.0909 50.7834 31.5213C50.8088 32.0686 50.7828 32.617 50.7061 33.1596C50.6793 33.3158 50.6251 33.575 50.5477 33.9217C50.4707 34.2684 50.4282 34.5999 50.3894 34.7449C50.1199 35.7734 49.763 36.7775 49.3231 37.7473C48.4922 39.6313 47.4018 41.3932 46.0821 42.9827C45.4881 43.7032 44.8427 44.3804 44.1507 45.0098C43.7644 45.3452 43.4011 45.6464 43.0844 45.9052C43.1269 45.9267 43.1668 45.9521 43.2043 45.9815C43.5678 46.1519 43.911 46.3615 44.228 46.6065C44.7767 47.013 45.2458 47.5152 45.611 48.0888C45.7915 48.3883 45.9501 48.7002 46.0861 49.0222C46.2317 49.3405 46.3606 49.6661 46.4724 49.9976C46.6505 50.6362 46.7798 51.287 46.8587 51.9447C46.9903 53.1631 46.9903 54.3917 46.8587 55.6101C46.8531 55.7277 46.8404 55.8449 46.8199 55.9608C46.7928 56.117 46.766 56.3039 46.7389 56.5248C46.7118 56.7457 46.6847 56.9326 46.6616 57.0887C46.6345 57.3743 46.6154 57.6223 46.6 57.8317C46.5842 58.0413 46.6 58.1555 46.6 58.1823L46.5611 58.2202L46.5226 58.2586L46.4413 58.3385H46.4028L46.5611 58.4148C46.7971 58.4656 47.0429 58.4524 47.2719 58.3764C47.5283 58.2883 47.7684 58.1595 47.9826 57.9954C49.528 56.7255 51.148 54.1002 52.8427 50.1195L52.997 49.7499ZM39.3643 46.4388H39.1286C38.7506 46.426 38.374 46.4923 38.0239 46.633C37.7342 46.7627 37.5602 46.8921 37.51 47.014C37.5585 47.0408 37.6131 47.0552 37.6683 47.0559C37.8665 47.079 38.0671 47.0648 38.2596 47.014C38.667 46.9067 39.0446 46.7102 39.3643 46.4388Z" fill="black"/>
<path opacity="0.82" d="M66.351 49.0102L66.7374 49.2047C66.7909 49.2222 66.8398 49.2519 66.8797 49.2916C66.9195 49.3311 66.949 49.3794 66.9663 49.4326C66.9838 49.4857 66.9881 49.5422 66.979 49.5973C66.9703 49.6521 66.9482 49.7046 66.9148 49.7495C66.198 51.0432 65.3641 52.2698 64.4234 53.4153C62.363 55.9885 60.3748 57.4948 58.4588 57.9342C58.1103 58.032 57.7534 58.097 57.3925 58.1284L56.3226 58.2849C56.0598 58.2849 55.7816 58.2849 55.4957 58.2466C55.1853 58.1799 54.8803 58.0894 54.5841 57.9761C54.3109 57.8764 54.0574 57.7308 53.8348 57.5456C53.4531 57.2758 53.119 56.9463 52.8458 56.5702C52.405 55.9601 52.0839 55.2736 51.8991 54.5469C51.711 53.8198 51.6175 53.0719 51.6212 52.3217C51.6239 51.5728 51.7173 50.8269 51.8991 50.1002C52.0575 49.3801 52.2824 48.6761 52.5713 47.9969C52.8395 47.3361 53.1843 46.7082 53.5991 46.126C53.9714 45.5697 54.4083 45.0582 54.9007 44.6019L55.8087 43.8626C56.019 43.7133 56.2442 43.5859 56.481 43.4816C56.729 43.3455 56.9871 43.2283 57.2536 43.1309C57.504 43.0407 57.7628 42.9747 58.026 42.9328C58.4193 42.8829 58.8164 42.8701 59.2121 42.8948L59.3316 42.9328H59.4903C59.5787 42.9619 59.6714 42.976 59.7645 42.9747C59.9386 42.9992 60.1103 43.0371 60.2784 43.0889C60.6252 43.1785 60.951 43.3346 61.2362 43.5492C61.5214 43.7639 61.7605 44.0323 61.9392 44.3388C62.3182 45.0153 62.4441 45.8014 62.2948 46.5602C62.0644 48.0989 61.2784 49.5032 60.0812 50.5155C58.7122 51.732 56.9797 52.4769 55.1441 52.6377C55.0932 53.1036 55.0661 53.5714 55.0631 54.04C55.0711 54.4485 55.124 54.8545 55.2214 55.2518C55.2684 55.4697 55.3491 55.6794 55.4609 55.8729C55.5201 56.0013 55.5998 56.1195 55.6965 56.2232C55.8107 56.3642 55.9402 56.492 56.0829 56.6042C56.2198 56.7185 56.3658 56.8219 56.5195 56.913C56.7742 57.0599 57.0571 57.1533 57.35 57.1873C57.6389 57.2402 57.9363 57.227 58.2191 57.1494C59.1056 56.9182 59.9335 56.5068 60.649 55.9413C61.4173 55.372 62.131 54.7341 62.7815 54.0364C63.4089 53.3433 63.9958 52.6155 64.5392 51.8568C65.1186 51.0488 65.505 50.4773 65.6982 50.1421C65.8508 49.8895 65.9887 49.6286 66.1113 49.3608L66.351 49.0102ZM55.488 50.8811C55.407 51.1938 55.3414 51.5061 55.2871 51.8148C56.4813 51.663 57.6246 51.2433 58.6285 50.5879C59.4686 50.0711 60.1829 49.3794 60.7223 48.5608C61.1267 47.9245 61.4013 47.2166 61.5298 46.4764C61.6262 45.8989 61.5372 45.3058 61.275 44.7808C61.1545 44.5589 60.9898 44.3635 60.7906 44.2063C60.5914 44.0492 60.3618 43.9336 60.116 43.8663C59.8465 43.7863 59.5589 43.7863 59.2894 43.8663C59.0239 43.9194 58.7775 44.0402 58.5746 44.2169C58.4337 44.3314 58.3045 44.4589 58.1883 44.5979C58.0287 44.7808 57.8997 44.937 57.802 45.0668C57.6965 45.2494 57.6038 45.4059 57.5237 45.5353C57.3638 45.7724 57.2191 46.0194 57.0912 46.2746C57.0102 46.4308 56.813 46.8994 56.4964 47.6766C56.3651 48.0157 56.1796 48.5341 55.9439 49.2351C55.7083 49.9364 55.5653 50.4924 55.488 50.8811Z" fill="black"/>
<path opacity="0.82" d="M79.9839 50.3371C79.5547 50.7539 79.0776 51.1197 78.5625 51.4268C78.1068 51.713 77.6317 51.9676 77.1406 52.1889C76.7543 52.3566 76.1788 52.5699 75.4409 52.8291C74.8357 53.0655 74.3877 53.2481 74.0968 53.3779C74.2079 53.5113 74.3264 53.6384 74.452 53.7589C74.6645 53.9914 74.8383 54.2123 75.0043 54.422C75.1758 54.66 75.3344 54.9067 75.4798 55.1612C75.6033 55.4532 75.7091 55.752 75.7964 56.0564C75.8494 56.2749 75.8895 56.4965 75.9159 56.7194C75.9424 57.0199 75.9283 57.3223 75.8738 57.6188C75.772 58.2699 75.5062 58.8858 75.1011 59.4098C74.7895 59.8516 74.4162 60.2482 73.9923 60.5869C73.9692 60.6136 73.8882 60.6899 73.7566 60.8193L73.5598 60.9755C73.4443 61.023 73.3371 61.0888 73.2427 61.17C72.6887 61.5583 72.0927 61.8855 71.466 62.1454C71.0301 62.3445 70.5809 62.5136 70.1215 62.6523C69.6311 62.7748 69.1229 62.8147 68.6187 62.7704C68.2153 62.6902 67.8441 62.4964 67.5497 62.2124C67.2558 61.9285 67.0513 61.5663 66.9615 61.17C66.6941 60.3135 66.6941 59.3973 66.9615 58.5407C67.1798 57.6449 67.6281 56.8195 68.2635 56.1442C68.8048 55.6347 69.372 55.1526 69.9632 54.6999C69.7506 54.5477 69.6194 54.4563 69.5769 54.4295C68.8089 53.883 68.07 53.2983 67.3633 52.6765C66.9923 52.312 66.6488 51.9211 66.3358 51.507C65.9843 51.0646 65.6921 50.5792 65.4667 50.0628C65.3087 49.6233 65.215 49.164 65.1885 48.6988C65.1624 48.5449 65.1624 48.3877 65.1885 48.2339V47.9974C65.1895 47.9182 65.2036 47.8396 65.2311 47.7654C65.2261 47.6845 65.2394 47.6039 65.2696 47.5289C65.2692 47.45 65.2823 47.3714 65.3081 47.2964C65.3325 47.1492 65.3727 47.0049 65.4279 46.8659C65.596 46.3293 65.835 45.8168 66.1387 45.3417C66.2103 45.2546 66.2759 45.1627 66.3358 45.0674C66.4092 44.9967 66.4751 44.9188 66.5327 44.8349C66.5869 44.7817 66.6796 44.6787 66.8109 44.5226C67.3251 44.0035 67.9528 43.6073 68.6458 43.3642L68.843 43.288L69.0013 43.2461L69.3566 43.1318L69.7121 43.0518H69.7895C69.8259 43.0308 69.8668 43.0176 69.909 43.0136H70.0673C70.1292 42.9836 70.1959 42.964 70.2645 42.9564C70.3167 42.9449 70.3697 42.937 70.4229 42.9337H70.7784C70.8102 42.9399 70.843 42.9399 70.8748 42.9337C70.9083 42.9293 70.9421 42.9293 70.9753 42.9337H71.4891C72.9649 43.0123 74.3606 43.7007 75.6766 44.999C75.7204 45.0346 75.7556 45.0796 75.7797 45.1301C75.8038 45.1809 75.8165 45.2361 75.8165 45.2922C75.8165 45.3483 75.8038 45.4035 75.7797 45.4543C75.7556 45.5052 75.7204 45.5498 75.6766 45.5858C75.5959 45.6587 75.4905 45.6993 75.381 45.6993C75.2715 45.6993 75.166 45.6587 75.0857 45.5858C73.9267 44.4172 72.7151 43.8064 71.4503 43.7529H71.1724L71.0141 43.7908H70.9019L70.5853 43.8711C70.4905 43.8892 70.3974 43.9146 70.307 43.9474L70.1872 44.0273L70.0713 44.0652L69.832 44.2214C69.7493 44.2673 69.6703 44.3195 69.5963 44.3779L69.4765 44.4921L69.3991 44.5721C69.0225 44.9442 68.7151 45.379 68.4915 45.8562C68.4637 45.9404 68.4232 46.0199 68.3717 46.0926C68.3479 46.1546 68.3348 46.2204 68.3328 46.2867C68.2953 46.3468 68.2682 46.4126 68.2518 46.4812C68.142 46.7946 68.0884 47.1248 68.0934 47.4566V47.807C68.0991 47.8479 68.1136 47.8868 68.1359 47.9215V48.1576C68.159 48.1576 68.1745 48.1843 68.1745 48.2339C68.1862 48.2438 68.1959 48.256 68.2023 48.2699C68.2089 48.2837 68.2126 48.2986 68.2133 48.3138L68.449 48.7787C68.8132 49.2726 69.2538 49.7071 69.7546 50.0667C70.2297 50.4477 70.8865 50.9391 71.7285 51.507C72.4663 52.0555 73.0342 52.4824 73.4282 52.7948L75.1283 52.1317C75.8671 51.8474 76.4208 51.6262 76.7891 51.4687C77.2384 51.271 77.6733 51.0431 78.091 50.7869C78.5577 50.5135 78.995 50.1942 79.3967 49.8343C79.4262 49.7864 79.467 49.7468 79.5159 49.7184C79.5648 49.69 79.6197 49.6742 79.6763 49.6718C79.7329 49.6695 79.7891 49.6811 79.8403 49.7055C79.8912 49.7299 79.935 49.7663 79.9685 49.8112C80.0067 49.8436 80.0378 49.8832 80.0596 49.9277C80.0813 49.9726 80.093 50.0212 80.0948 50.0707C80.0961 50.1205 80.0871 50.1698 80.068 50.2157C80.0489 50.2615 80.0201 50.3029 79.9839 50.3371ZM72.7138 58.0913C72.8095 57.8569 72.8507 57.6043 72.8333 57.352C72.7901 57.2434 72.7372 57.1387 72.6749 57.0396C72.6401 56.9515 72.5862 56.8723 72.5166 56.8072C72.4627 56.727 72.3853 56.6243 72.2809 56.4949L71.9642 56.1821C71.8276 56.088 71.6984 55.9834 71.5779 55.8698C71.3422 55.6908 71.0409 55.4888 70.6703 55.2068C70.0298 55.6575 69.4232 56.1528 68.8544 56.689C68.2816 57.2896 67.8815 58.0302 67.6957 58.8342C67.4804 59.5194 67.4804 60.2524 67.6957 60.9376C67.752 61.1852 67.8789 61.4117 68.0606 61.591C68.2424 61.7707 68.4721 61.8954 68.7232 61.9513C69.0777 61.9938 69.4372 61.9258 69.7506 61.7567C70.0907 61.5497 70.3968 61.2929 70.6586 60.9947C71.0509 60.573 71.4209 60.1316 71.7674 59.6726C71.8219 59.5739 71.8879 59.4817 71.9642 59.3982C72.1226 59.1658 72.2116 59.0363 72.2384 59.0172C72.4282 58.7252 72.5876 58.4149 72.7138 58.0913Z" fill="black"/>
<path opacity="0.82" d="M93.0646 49.0102L93.4512 49.2047C93.5045 49.2222 93.5536 49.2519 93.5938 49.2916C93.6331 49.3311 93.6626 49.3794 93.6798 49.4326C93.6978 49.4857 93.7019 49.5422 93.6929 49.5973C93.6839 49.6521 93.6618 49.7046 93.629 49.7495C92.9122 51.0432 92.0775 52.2698 91.1371 53.4153C89.077 55.9885 87.0889 57.4948 85.1729 57.9342C84.824 58.0326 84.4676 58.0977 84.1064 58.1284L83.0366 58.2849C82.7736 58.2849 82.4992 58.2849 82.2092 58.2466C81.8992 58.1795 81.5945 58.0891 81.2979 57.9761C81.0247 57.8764 80.7713 57.7308 80.5483 57.5456C80.1677 57.2748 79.8339 56.9457 79.5597 56.5702C79.1201 55.9591 78.7994 55.2729 78.6129 54.5469C78.4248 53.8198 78.3314 53.0719 78.3351 52.3217C78.3378 51.5728 78.4311 50.8269 78.6129 50.1002C78.7713 49.3804 78.9963 48.6761 79.2852 47.9969C79.555 47.3369 79.8996 46.7092 80.313 46.126C80.6853 45.5697 81.1221 45.0582 81.6146 44.6019C81.9315 44.3427 82.233 44.0951 82.5262 43.8626C82.7351 43.7136 82.9596 43.5859 83.1947 43.4816C83.4486 43.3445 83.714 43.2273 83.9868 43.1309C84.2366 43.0407 84.4955 42.9744 84.7592 42.9328C85.1516 42.8829 85.5473 42.8701 85.9413 42.8948L86.0609 42.9328H86.2198C86.3091 42.9622 86.4033 42.9764 86.4975 42.9747C86.6711 42.9995 86.844 43.0378 87.0111 43.0889C87.3576 43.1788 87.6828 43.3356 87.967 43.5499C88.2513 43.7645 88.4896 44.0326 88.6682 44.3388C89.0475 45.0153 89.1736 45.8018 89.0237 46.5602C88.7952 48.0992 88.0088 49.5045 86.8104 50.5155C85.4416 51.732 83.7091 52.4769 81.8734 52.6377C81.8225 53.1036 81.7954 53.5714 81.7924 54.04C81.8004 54.4485 81.8536 54.8545 81.9504 55.2518C81.9979 55.4697 82.0782 55.6794 82.1904 55.8729C82.2494 56.0013 82.3288 56.1195 82.4255 56.2235C82.5418 56.3622 82.6712 56.49 82.8121 56.6045C82.9497 56.7185 83.0955 56.8219 83.2487 56.913C83.5035 57.0599 83.7861 57.1533 84.0793 57.1873C84.3685 57.2402 84.6659 57.227 84.9485 57.1494C85.8356 56.9182 86.6629 56.5069 87.3781 55.9416C88.1481 55.3739 88.8624 54.736 89.5111 54.0364C90.1394 53.3443 90.7267 52.6166 91.2682 51.8568C91.8482 51.0488 92.234 50.4773 92.4273 50.1421C92.5805 49.8895 92.7181 49.6286 92.841 49.3608L93.0646 49.0102ZM82.1978 50.8814C82.1167 51.1938 82.0511 51.5061 82.0012 51.8148C83.1938 51.6623 84.3357 51.2426 85.3384 50.5879C86.178 50.0711 86.8931 49.3794 87.4321 48.5608C87.8376 47.9245 88.1137 47.2166 88.2439 46.4764C88.3373 45.8985 88.2464 45.3061 87.9851 44.7808C87.8646 44.5589 87.7 44.3635 87.5001 44.2063C87.3011 44.0492 87.0717 43.9336 86.826 43.8666C86.5565 43.7863 86.2689 43.7863 85.9994 43.8666C85.7348 43.9177 85.4891 44.0389 85.2884 44.2169C85.1467 44.3305 85.0173 44.4582 84.9018 44.5979C84.7429 44.7808 84.6134 44.937 84.516 45.0668C84.4127 45.2497 84.3202 45.4059 84.2374 45.5353C84.0777 45.7724 83.9327 46.0194 83.8049 46.2746C83.7238 46.4308 83.5272 46.8994 83.2102 47.6766C83.0792 48.016 82.8973 48.5341 82.6581 49.2351C82.4181 49.9364 82.2748 50.4925 82.1978 50.8814Z" fill="black"/>
<path opacity="0.82" d="M105.983 49.6361L106.368 49.7922C106.422 49.8038 106.472 49.8276 106.514 49.8622C106.556 49.8966 106.59 49.9402 106.611 49.9897C106.632 50.0393 106.642 50.0931 106.638 50.1469C106.634 50.2008 106.617 50.2529 106.589 50.2991C106.429 50.7155 106.205 51.2415 105.917 51.8764C105.628 52.5114 105.174 53.4666 104.553 54.7418C103.978 55.9305 103.318 57.0766 102.576 58.1712C102.077 58.9841 101.42 59.6924 100.643 60.2553C100.507 60.3874 100.348 60.4934 100.172 60.568C100.075 60.6175 99.966 60.644 99.8554 60.644C99.8398 60.6588 99.821 60.67 99.7997 60.6769C99.78 60.6842 99.7579 60.6872 99.7358 60.6859H99.6588C99.5769 60.6902 99.495 60.6759 99.4188 60.644C99.2386 60.6215 99.0715 60.5396 98.9437 60.4118C98.8667 60.3316 98.7741 60.2289 98.6701 60.0991C98.557 59.9281 98.4637 59.7455 98.3916 59.5543C98.3056 59.2208 98.2392 58.8824 98.195 58.5406C98.145 58.218 98.1188 57.8918 98.1172 57.5653C98.1032 56.3534 98.1827 55.142 98.3531 53.9418C98.3801 53.6063 98.4268 53.2216 98.4923 52.7987C98.5579 52.3756 98.6234 51.9487 98.6889 51.5334C98.7553 51.1183 98.8012 50.7713 98.8282 50.4401C98.9052 49.7655 98.9592 49.2475 98.9863 48.8816C98.7659 49.0104 98.5538 49.1543 98.3531 49.3122L97.9394 49.6246L97.407 50.0056C97.221 50.135 97.0473 50.2647 96.8925 50.3866C96.614 50.5735 96.324 50.7425 96.0234 50.8934C95.4975 51.1969 94.8946 51.3465 94.2852 51.324H93.9256C93.7781 51.2999 93.6323 51.2603 93.4931 51.2058C93.2252 51.1005 92.9836 50.941 92.7829 50.7372C92.619 50.5679 92.488 50.3701 92.3962 50.1542C92.2283 49.8098 92.1218 49.4403 92.0792 49.0606C92.0235 48.7268 91.9965 48.389 91.9981 48.0509C92.0235 47.3872 92.1431 46.7308 92.3536 46.1001C92.5543 45.4417 92.891 44.8318 93.3432 44.3091C93.5881 44.0364 93.883 43.8116 94.2123 43.6462C94.5588 43.493 94.938 43.4262 95.3165 43.4516C95.5336 43.4266 95.7531 43.4738 95.9399 43.5867C96.1258 43.6993 96.2683 43.8706 96.3437 44.0728C96.5837 44.6179 96.4289 45.4255 95.8924 46.4887C95.3738 47.5189 94.7578 48.4986 94.0534 49.4149C94.0575 49.4439 94.0706 49.4706 94.0919 49.4912H94.2123L94.49 49.4149C94.9438 49.2891 95.3632 49.0622 95.7146 48.7518C95.8727 48.6224 96.1012 48.4243 96.406 48.1651C96.7115 47.9059 96.9237 47.7233 97.0555 47.6203C97.3717 47.3611 97.6502 47.1518 97.8862 46.9953C98.2507 46.7747 98.6521 46.6175 99.0715 46.5306C99.1878 46.5019 99.3074 46.4877 99.427 46.4887H99.7825C99.8767 46.4877 99.9709 46.5019 100.06 46.5306C100.218 46.5812 100.365 46.6601 100.493 46.7628C100.613 46.8522 100.72 46.9572 100.81 47.0755C100.916 47.2194 100.992 47.3825 101.034 47.5556C101.116 47.7818 101.169 48.0172 101.192 48.2566C101.219 48.4372 101.232 48.6191 101.231 48.8014C101.231 49.0606 101.231 49.3845 101.192 49.7771C101.165 50.0627 101.138 50.375 101.111 50.7105C101.057 51.1791 100.98 51.7774 100.876 52.5051C100.768 53.0994 100.679 53.6865 100.598 54.2581C100.521 54.5972 100.412 55.1496 100.281 55.9153C100.149 56.6813 100.045 57.2721 99.9635 57.6871C99.8824 58.1025 99.871 58.3768 99.848 58.5066C99.821 58.7922 99.8095 59.0399 99.8095 59.2456C99.8046 59.3262 99.8177 59.4071 99.848 59.482V59.5583H99.7669V59.5962H99.8865C99.9938 59.621 100.106 59.6075 100.204 59.5583C101.019 59.0501 101.98 57.7634 103.085 55.6984C104.101 53.8447 105.012 51.9365 105.812 49.9828C105.929 49.7503 105.983 49.6361 105.983 49.6361ZM93.6946 48.5844C94.2459 47.8036 94.7349 46.9817 95.1584 46.1265C95.5811 45.2706 95.7244 44.6991 95.5909 44.4118C95.5639 44.3359 95.4713 44.294 95.3132 44.294C95.0855 44.3174 94.8684 44.399 94.6833 44.53C94.5055 44.68 94.3458 44.85 94.2082 45.0369C93.942 45.4787 93.7675 45.9684 93.6946 46.4772C93.5897 46.99 93.5635 47.5153 93.6168 48.0356C93.6159 48.2212 93.6421 48.4058 93.6946 48.5844Z" fill="black"/>
<path opacity="0.82" d="M117.205 49.4796L117.541 49.7121C117.764 49.8682 117.784 50.0627 117.599 50.2988C117.494 50.4513 117.343 50.6494 117.147 50.8819C116.795 51.2441 116.405 51.571 115.988 51.8572C115.49 52.2396 114.918 52.5183 114.307 52.6765C114.073 52.7263 113.835 52.7518 113.597 52.7528C113.529 52.7508 113.462 52.7379 113.399 52.7144C112.503 55.3893 111.528 57.1562 110.475 58.0146C110.455 58.0374 110.431 58.0562 110.404 58.0691C110.376 58.0824 110.347 58.0896 110.317 58.0909C110.152 58.2837 109.952 58.4429 109.725 58.5598C109.591 58.6374 109.443 58.6905 109.289 58.7159C109.197 58.7206 109.105 58.7331 109.015 58.754C108.934 58.7466 108.855 58.7341 108.775 58.7159C108.434 58.6813 108.108 58.5608 107.829 58.3653C107.573 58.1933 107.346 57.9823 107.156 57.7406C106.839 57.3315 106.573 56.8864 106.364 56.4146C106.17 55.9962 105.998 55.5672 105.852 55.1305C105.571 54.3066 105.374 53.4581 105.26 52.5966C105.125 51.8401 105.032 51.0768 104.982 50.3103C104.905 49.1544 104.905 47.9947 104.982 46.8391L105.063 45.5131C105.113 45.2806 105.314 45.132 105.654 45.0102C106.029 44.9012 106.422 44.8609 106.813 44.8919C107.19 44.9049 107.56 44.9969 107.899 45.1624C108.189 45.3185 108.335 45.5015 108.335 45.7112C108.31 45.8056 108.297 45.903 108.297 46.0007C108.295 46.0998 108.28 46.1985 108.254 46.2943C108.203 46.8124 108.149 47.3228 108.095 47.8184C107.964 49.5331 107.899 51.0658 107.899 52.4173C107.891 53.2381 107.944 54.058 108.057 54.8712C108.117 55.5534 108.278 56.2231 108.532 56.8603C108.536 56.9019 108.549 56.9422 108.57 56.9785C108.582 56.9878 108.592 56.9993 108.598 57.0125C108.605 57.0257 108.609 57.0399 108.609 57.0544C108.645 57.1099 108.684 57.1624 108.729 57.2109L108.887 57.4431C108.956 57.4778 109.022 57.5174 109.085 57.5613C109.148 57.5847 109.214 57.5976 109.281 57.5996C109.391 57.5943 109.498 57.5682 109.598 57.5233C109.683 57.521 109.765 57.4933 109.833 57.4431L109.915 57.3671L109.954 57.4051C110.875 56.6431 111.776 54.9806 112.658 52.4173C111.839 51.7925 111.431 50.5224 111.433 48.6069C111.409 47.3727 111.609 46.144 112.024 44.9794C112.523 43.7069 113.183 43.0743 113.998 43.0743C114.187 43.0719 114.372 43.1321 114.523 43.2453C114.674 43.3585 114.781 43.5184 114.829 43.6993C115.014 44.7071 115.014 45.7396 114.829 46.7476C114.634 48.1407 114.351 49.5206 113.979 50.878L113.666 51.9679C113.826 51.9682 113.986 51.9425 114.137 51.8916C114.649 51.7562 115.126 51.5175 115.54 51.1903C115.894 50.9416 116.226 50.661 116.528 50.3522C116.677 50.1846 116.817 50.0093 116.946 49.8263C117.123 49.5826 117.205 49.4796 117.205 49.4796ZM112.936 51.5449C113.727 48.946 114.135 46.7869 114.16 45.0672C114.201 44.6578 114.147 44.2448 114.002 43.8594C113.554 43.8872 113.159 44.3419 112.816 45.2234C112.429 46.2993 112.242 47.435 112.264 48.5765C112.264 49.9838 112.487 50.9734 112.936 51.5449Z" fill="black"/>
<path opacity="0.82" d="M130.876 49.0105L131.262 49.2047C131.316 49.2222 131.365 49.2519 131.405 49.2916C131.445 49.3311 131.474 49.3794 131.491 49.4326C131.509 49.4857 131.513 49.5422 131.505 49.5973C131.496 49.6524 131.473 49.7046 131.44 49.7495C130.725 51.0432 129.893 52.2698 128.952 53.4153C126.892 55.9885 124.902 57.4948 122.984 57.9342C122.636 58.0326 122.279 58.0977 121.917 58.1288L120.852 58.2849C120.589 58.2849 120.311 58.2849 120.021 58.2466C119.712 58.1799 119.408 58.0894 119.113 57.9761C118.839 57.8768 118.584 57.7308 118.36 57.5456C117.98 57.2748 117.648 56.9454 117.374 56.5702C116.933 55.9601 116.61 55.2739 116.425 54.5469C116.24 53.8194 116.147 53.0719 116.15 52.3217C116.154 51.5732 116.245 50.8276 116.425 50.1002C116.583 49.3804 116.807 48.6761 117.097 47.9969C117.366 47.3369 117.711 46.7092 118.124 46.126C118.498 45.5697 118.936 45.0582 119.43 44.6019C119.743 44.3427 120.048 44.0951 120.338 43.8626C120.548 43.7127 120.773 43.5849 121.01 43.4816C121.257 43.3445 121.516 43.2273 121.782 43.1309C122.033 43.0407 122.292 42.9744 122.555 42.9328C122.949 42.8829 123.345 42.8701 123.742 42.8948L123.857 42.9328H124.015C124.105 42.9615 124.199 42.9757 124.294 42.9747C124.467 42.9992 124.639 43.0375 124.807 43.0889C125.154 43.1788 125.479 43.3356 125.763 43.5499C126.047 43.7645 126.286 44.0326 126.464 44.3391C126.845 45.0146 126.971 45.8018 126.82 46.5602C126.592 48.0989 125.807 49.5042 124.611 50.5155C123.24 51.733 121.506 52.4779 119.67 52.638C119.62 53.1036 119.594 53.5718 119.593 54.04C119.597 54.4488 119.65 54.8555 119.751 55.2518C119.796 55.4697 119.875 55.6791 119.987 55.8729C120.046 56.0013 120.125 56.1198 120.222 56.2235C120.337 56.3629 120.467 56.4907 120.608 56.6045C120.744 56.7185 120.888 56.8215 121.041 56.913C121.296 57.0595 121.578 57.1527 121.871 57.1873C122.161 57.2402 122.458 57.227 122.741 57.1494C123.627 56.9186 124.455 56.5069 125.17 55.9416C125.94 55.3739 126.654 54.736 127.303 54.0364C127.931 53.3436 128.52 52.6159 129.064 51.8568C129.643 51.0488 130.03 50.4773 130.223 50.1421C130.42 49.803 130.559 49.5438 130.64 49.3608L130.876 49.0105ZM120.009 50.8814C119.932 51.1938 119.863 51.5061 119.813 51.8148C121.006 51.6623 122.147 51.2426 123.15 50.5879C123.991 50.0724 124.706 49.3801 125.244 48.5608C125.65 47.9252 125.926 47.217 126.055 46.4764C126.149 45.8985 126.058 45.3061 125.796 44.7808C125.676 44.5589 125.512 44.3632 125.313 44.206C125.113 44.0488 124.883 43.9332 124.638 43.8666C124.367 43.7863 124.077 43.7863 123.807 43.8666C123.542 43.9188 123.297 44.0399 123.096 44.2169C122.954 44.3305 122.825 44.4582 122.709 44.5979C122.551 44.7808 122.416 44.937 122.324 45.0668C122.231 45.1963 122.126 45.4059 122.049 45.5353C121.888 45.7724 121.742 46.0194 121.613 46.2746C121.536 46.4308 121.338 46.8994 121.021 47.6769C120.89 48.016 120.705 48.5341 120.465 49.2351C120.226 49.9364 120.086 50.4928 120.009 50.8814Z" fill="black"/>
</g>
<path d="M133.384 59.291C132.317 59.291 131.545 58.765 131.065 57.7133C130.566 56.4471 130.337 55.093 130.393 53.7352C130.4 52.7004 130.474 51.6666 130.617 50.6414C130.769 49.5438 130.919 48.4912 131.065 47.4824C131.212 46.474 131.361 45.5584 131.514 44.7353C131.64 44.1215 131.715 43.4981 131.737 42.872C131.737 42.6204 131.695 42.491 131.61 42.4299C131.525 42.3691 131.482 42.2853 131.482 42.2433C131.482 42.0756 131.749 41.927 132.282 41.8012C132.882 41.6658 133.495 41.6021 134.109 41.6107C134.595 41.6064 135.079 41.6705 135.547 41.8012C135.994 41.9283 136.219 42.1822 136.219 42.5633C136.134 43.3227 135.984 44.0736 135.771 44.8075C135.474 46.0091 135.133 47.3556 134.747 48.8468C134.361 50.338 134.019 51.7908 133.723 53.2056C133.47 54.2728 133.32 55.3611 133.276 56.456C133.276 57.1302 133.403 57.4657 133.661 57.4657C133.92 57.4657 134.368 57.016 134.878 56.235C135.441 55.373 135.956 54.4828 136.424 53.5678C136.937 52.5809 137.393 51.6207 137.799 50.6945C138.204 49.7687 138.471 49.14 138.602 48.7897C138.668 48.6503 138.766 48.5285 138.888 48.4334C139.01 48.3383 139.153 48.2729 139.305 48.2422C139.458 48.2115 139.616 48.2161 139.766 48.2564C139.916 48.2967 140.055 48.3706 140.17 48.4733C140.266 48.5612 140.342 48.6691 140.391 48.7887C140.441 48.9085 140.463 49.0377 140.456 49.1668C140.392 49.4956 140.285 49.8146 140.136 50.1153C139.923 50.6222 139.688 51.1482 139.433 51.693L138.695 53.2743C138.555 53.5985 138.394 53.9142 138.216 54.2193C137.742 55.1415 137.207 56.0324 136.617 56.8865C136.24 57.4346 135.811 57.9452 135.334 58.4107C135.037 58.7141 134.677 58.9519 134.28 59.1081C133.992 59.2164 133.69 59.2781 133.384 59.291ZM132.104 36.886C132.092 36.536 132.15 36.1874 132.276 35.8602C132.402 35.5329 132.593 35.2337 132.839 34.9808C133.092 34.7253 133.397 34.5255 133.733 34.3941C134.07 34.263 134.431 34.2032 134.793 34.2187C135.36 34.1894 135.916 34.3825 136.338 34.756C136.535 34.9491 136.687 35.1809 136.786 35.4365C136.886 35.6918 136.929 35.9651 136.914 36.2382C136.917 36.5935 136.848 36.9458 136.71 37.2743C136.572 37.6025 136.369 37.9 136.111 38.149C135.854 38.398 135.549 38.5934 135.214 38.7232C134.879 38.8533 134.52 38.915 134.159 38.9055C132.784 38.8939 132.104 38.2233 132.104 36.886Z" fill="#F2F2F2"/>
<path d="M133.383 59.7099C132.795 59.7205 132.219 59.5497 131.734 59.2222C131.25 58.8943 130.88 58.4255 130.679 57.8806C130.149 56.5631 129.897 55.1523 129.941 53.7351C129.946 52.6808 130.023 51.6281 130.169 50.5841C130.32 49.4865 130.467 48.4309 130.617 47.4212C130.768 46.4115 130.919 45.4781 131.069 44.6589C131.189 44.0698 131.261 43.4722 131.285 42.8719C131.289 42.8224 131.289 42.7728 131.285 42.7233C131.214 42.6639 131.155 42.5906 131.112 42.508C131.069 42.4255 131.044 42.3353 131.038 42.2433C131.038 41.6562 131.811 41.4812 132.162 41.3897C132.795 41.2484 133.444 41.1803 134.094 41.1876C134.616 41.1856 135.136 41.2546 135.639 41.3933C135.912 41.4405 136.16 41.5809 136.34 41.7899C136.518 41.9986 136.618 42.2627 136.62 42.5364C136.62 42.7461 136.57 43.2186 136.16 44.8798C135.859 46.0814 135.517 47.4289 135.133 48.9226C134.747 50.42 134.407 51.8834 134.113 53.2626C133.867 54.3024 133.721 55.3623 133.677 56.4291C133.673 56.5989 133.686 56.7686 133.715 56.9359C134.018 56.6559 134.279 56.3337 134.488 55.9794C135.037 55.1338 135.542 54.2614 136.002 53.3656C136.5 52.4015 136.96 51.4605 137.366 50.5155C137.771 49.5705 138.034 48.9913 138.158 48.6406L138.185 48.5835C138.281 48.389 138.422 48.2193 138.597 48.0876C138.771 47.9558 138.974 47.866 139.19 47.8244C139.405 47.7831 139.628 47.7917 139.839 47.8495C140.051 47.907 140.246 48.0123 140.409 48.1569C140.551 48.2847 140.663 48.4409 140.738 48.6152C140.812 48.7896 140.848 48.9774 140.843 49.1666C140.791 49.5539 140.671 49.929 140.487 50.2754C140.263 50.8126 140.024 51.3459 139.776 51.8718L139.715 52.0013L139.042 53.4495C138.896 53.7863 138.729 54.1145 138.544 54.4325C138.065 55.3722 137.523 56.2799 136.921 57.1493C136.527 57.7155 136.08 58.2435 135.585 58.7266C135.244 59.0733 134.83 59.3414 134.372 59.5118C134.055 59.6306 133.722 59.6977 133.383 59.7099ZM132.035 42.3003C132.118 42.479 132.156 42.6751 132.147 42.8719C132.123 43.5234 132.046 44.1722 131.915 44.8114C131.768 45.619 131.617 46.5373 131.471 47.5434C131.324 48.5492 131.173 49.6048 131.023 50.6944C130.881 51.7045 130.807 52.7231 130.802 53.7427C130.759 55.0446 130.986 56.3413 131.471 57.5531C131.857 58.4601 132.482 58.8827 133.383 58.8827C133.633 58.8762 133.879 58.8299 134.113 58.7458C134.452 58.61 134.757 58.405 135.01 58.1438C135.464 57.699 135.875 57.213 136.237 56.692C136.818 55.8477 137.343 54.9671 137.806 54.0551L137.829 54.0171C137.998 53.7308 138.148 53.4343 138.277 53.1292C138.493 52.6643 138.718 52.1806 138.954 51.6814L139.015 51.548C139.254 51.0336 139.49 50.5078 139.711 49.9818C139.833 49.7276 139.929 49.4621 140.001 49.1894C140.008 49.119 139.999 49.0477 139.973 48.9814C139.947 48.9153 139.907 48.8559 139.854 48.8084C139.788 48.7486 139.709 48.705 139.623 48.6812C139.537 48.6578 139.447 48.6545 139.359 48.672C139.272 48.6895 139.19 48.7271 139.12 48.782C139.05 48.8368 138.994 48.9071 138.958 48.9874C138.822 49.3416 138.571 49.9551 138.162 50.8697C137.752 51.7843 137.281 52.7749 136.771 53.7655C136.305 54.6887 135.789 55.5865 135.226 56.4559C134.623 57.3777 134.156 57.8159 133.711 57.877H133.65C133.112 57.877 132.842 57.393 132.842 56.4443C132.885 55.3197 133.038 54.202 133.298 53.1064C133.592 51.7117 133.94 50.2411 134.326 48.7321C134.711 47.2231 135.052 45.8934 135.35 44.6933C135.555 43.9926 135.702 43.2764 135.786 42.5517C135.786 42.4526 135.786 42.304 135.423 42.2013C134.992 42.0831 134.548 42.024 134.101 42.0259C133.521 42.019 132.941 42.0792 132.374 42.2049C132.22 42.2433 132.112 42.2736 132.035 42.3003ZM134.152 39.3168C132.556 39.3168 131.676 38.448 131.676 36.8743C131.665 36.4718 131.735 36.0717 131.883 35.6962C132.029 35.3208 132.251 34.9777 132.533 34.6872C132.826 34.3917 133.179 34.1599 133.568 34.007C133.957 33.8542 134.374 33.7834 134.793 33.7993C135.465 33.7723 136.121 34.006 136.62 34.4508C136.859 34.6836 137.046 34.9633 137.169 35.272C137.291 35.5803 137.347 35.9109 137.331 36.2417C137.335 36.6518 137.255 37.0583 137.095 37.4373C136.936 37.8161 136.701 38.1592 136.405 38.4464C136.107 38.7333 135.755 38.9585 135.368 39.1081C134.981 39.2577 134.567 39.3287 134.152 39.3168ZM134.793 34.6413C134.489 34.6255 134.186 34.673 133.901 34.7813C133.618 34.8899 133.361 35.0564 133.148 35.2703C132.941 35.4836 132.781 35.7352 132.674 36.0109C132.569 36.2863 132.519 36.5798 132.529 36.8743C132.529 37.9947 133.016 38.4748 134.152 38.4748C134.454 38.4834 134.755 38.4318 135.037 38.3236C135.318 38.2149 135.575 38.0518 135.791 37.8434C136.007 37.6351 136.178 37.3858 136.296 37.1108C136.412 36.8354 136.472 36.5399 136.469 36.2417C136.485 36.0261 136.454 35.8092 136.378 35.6064C136.302 35.4034 136.183 35.2184 136.029 35.0643C135.689 34.7701 135.245 34.6182 134.793 34.6413Z" fill="#FBB03B"/>
<path d="M141.704 36.2419C141.451 36.2369 141.211 36.1358 141.032 35.9595C140.853 35.7835 140.751 35.5461 140.746 35.2969C140.752 35.0479 140.854 34.8101 141.033 34.6338C141.211 34.4572 141.451 34.3548 141.704 34.3482H143.756C143.925 33.2127 144.063 32.2448 144.168 31.4446C144.25 30.9207 144.304 30.3929 144.331 29.8633C144.331 29.6537 144.265 29.528 144.137 29.4823C144.01 29.4366 144.01 29.3337 144.01 29.2918C144.01 29.1241 144.288 28.9756 144.841 28.8498C145.451 28.719 146.075 28.6564 146.699 28.6631C147.173 28.6594 147.647 28.7119 148.109 28.8193C148.534 28.926 148.746 29.147 148.746 29.4823C148.757 30.0256 148.694 30.5677 148.557 31.0941C148.383 31.9552 148.171 33.041 147.915 34.3442H149.195C149.327 34.3376 149.458 34.3598 149.581 34.4093C149.703 34.4585 149.812 34.5341 149.902 34.6302C150.069 34.8108 150.161 35.0482 150.156 35.2932C150.159 35.5379 150.068 35.7747 149.902 35.9563C149.812 36.0507 149.701 36.1253 149.58 36.1738C149.457 36.2223 149.326 36.2445 149.195 36.2379H147.534C147.191 37.9222 146.827 39.7639 146.444 41.7629C146.06 43.7622 145.708 45.7094 145.386 47.6043C145.066 49.497 144.799 51.2126 144.586 52.7523C144.403 53.933 144.296 55.1243 144.265 56.3186C144.265 57.0807 144.373 57.435 144.586 57.393C144.882 57.393 145.287 57.0031 145.803 56.2232C146.365 55.3614 146.881 54.4712 147.348 53.556C147.858 52.5693 148.329 51.6092 148.754 50.683C149.179 49.7571 149.461 49.1285 149.589 48.7778C149.654 48.6388 149.753 48.517 149.875 48.4218C149.997 48.3267 150.139 48.2614 150.292 48.2307C150.445 48.1996 150.602 48.2046 150.752 48.2448C150.903 48.2848 151.041 48.3591 151.157 48.4618C151.253 48.5493 151.329 48.657 151.379 48.7768C151.428 48.8967 151.45 49.0258 151.443 49.1552C151.381 49.4841 151.275 49.8033 151.126 50.1038C150.909 50.6107 150.678 51.1367 150.419 51.6814C150.161 52.2263 149.917 52.7559 149.685 53.2627C149.543 53.5867 149.382 53.902 149.202 54.2077C148.73 55.1306 148.195 56.0218 147.603 56.875C147.226 57.4218 146.799 57.9323 146.324 58.3992C146.025 58.7019 145.664 58.9393 145.266 59.0961C144.988 59.1923 144.698 59.2451 144.404 59.2527C143.901 59.2768 143.403 59.1421 142.982 58.868C142.562 58.5939 142.242 58.1948 142.067 57.7285C141.587 56.5461 141.358 55.2789 141.395 54.0057C141.395 53.1217 141.458 51.9635 141.584 50.5308C141.71 49.098 141.882 47.5739 142.098 45.9583C142.311 44.3351 142.546 42.6713 142.801 40.9669C143.056 39.2621 143.29 37.6732 143.504 36.1999L141.704 36.2419Z" fill="#F2F2F2"/>
<path d="M144.397 59.7101C143.813 59.7342 143.234 59.5771 142.744 59.2604C142.255 58.9441 141.878 58.4844 141.666 57.9459C141.162 56.7031 140.921 55.3711 140.959 54.0328C140.959 53.145 141.025 51.9638 141.152 50.5236C141.28 49.0833 141.458 47.5324 141.666 45.9281C141.874 44.324 142.114 42.6437 142.373 40.9329C142.603 39.4088 142.813 37.981 143.007 36.65H141.705C141.43 36.6517 141.162 36.5725 140.932 36.4222C140.704 36.2723 140.526 36.058 140.421 35.8078C140.316 35.5571 140.29 35.2814 140.346 35.0159C140.401 34.7508 140.535 34.5078 140.731 34.3179C140.858 34.1898 141.009 34.0878 141.177 34.0178C141.344 33.9478 141.523 33.9114 141.705 33.9104H143.385C143.532 32.9298 143.653 32.0839 143.749 31.3726C143.826 30.8675 143.877 30.3587 143.903 29.8485L143.837 29.7837C143.765 29.723 143.704 29.6486 143.662 29.5648C143.618 29.4811 143.593 29.3897 143.586 29.296C143.586 28.7092 144.401 28.5339 144.745 28.4463C145.38 28.308 146.027 28.2402 146.676 28.2443C147.185 28.2403 147.693 28.2978 148.187 28.4158C148.446 28.4464 148.686 28.5672 148.863 28.7565C149.04 28.9457 149.143 29.1911 149.153 29.4484C149.18 30.028 149.121 30.6084 148.975 31.1707C148.828 31.9327 148.648 32.8485 148.434 33.9181H149.207C149.398 33.9118 149.589 33.9468 149.766 34.0204C149.943 34.0941 150.101 34.2047 150.231 34.3447C150.47 34.6059 150.602 34.9453 150.602 35.2973C150.602 35.6492 150.47 35.9887 150.231 36.2498C150.101 36.3898 149.943 36.5004 149.766 36.5741C149.589 36.6481 149.398 36.6828 149.207 36.6768H147.894C147.581 38.2237 147.245 39.9269 146.874 41.8588C146.487 43.8478 146.136 45.8101 145.819 47.6886C145.502 49.567 145.235 51.2969 145.023 52.825C144.836 53.9813 144.723 55.1485 144.687 56.3191C144.685 56.5076 144.696 56.6958 144.718 56.8831C145 56.6228 145.242 56.3237 145.437 55.9951C145.989 55.1512 146.494 54.2788 146.951 53.3813C147.457 52.4057 147.928 51.4455 148.353 50.5236C148.778 49.6013 149.052 48.9763 149.172 48.6563L149.199 48.5993C149.296 48.4048 149.437 48.235 149.611 48.1033C149.786 47.9716 149.989 47.8817 150.204 47.8401C150.42 47.7988 150.642 47.8075 150.854 47.8649C151.065 47.9227 151.261 48.0281 151.424 48.1723C151.566 48.3004 151.677 48.4566 151.752 48.6309C151.826 48.805 151.862 48.9932 151.857 49.1823C151.806 49.569 151.687 49.9441 151.505 50.2912C151.282 50.8168 151.042 51.354 150.794 51.8876L150.663 52.1656L150.057 53.4613C149.91 53.7997 149.744 54.1293 149.558 54.4482C149.08 55.3873 148.538 56.2937 147.936 57.161C147.544 57.7303 147.097 58.2599 146.599 58.7423C146.259 59.089 145.844 59.3571 145.386 59.5272C145.069 59.6411 144.735 59.7028 144.397 59.7101ZM141.693 34.7676C141.624 34.7676 141.555 34.7825 141.492 34.8106C141.429 34.839 141.372 34.8803 141.326 34.9314C141.272 34.9793 141.229 35.0381 141.2 35.1038C141.172 35.1698 141.158 35.2408 141.16 35.3125C141.169 35.4491 141.228 35.5776 141.326 35.6744C141.425 35.7711 141.555 35.8295 141.693 35.8384H143.98L143.915 36.3034C143.698 37.779 143.464 39.3691 143.211 41.0739C142.952 42.777 142.717 44.4537 142.504 46.0538C142.292 47.6543 142.119 49.1784 141.995 50.6263C141.871 52.0741 141.805 53.1945 141.805 54.0556C141.768 55.2724 141.985 56.4838 142.443 57.6144C142.582 58.0031 142.846 58.3365 143.195 58.5647C143.543 58.7928 143.957 58.9034 144.374 58.8797C144.622 58.8724 144.868 58.8262 145.1 58.7423C145.44 58.6063 145.747 58.4009 146.001 58.1404C146.454 57.6956 146.864 57.2096 147.225 56.6885C147.806 55.8446 148.33 54.9637 148.794 54.052L148.817 54.0137C148.985 53.7274 149.135 53.4309 149.265 53.1258C149.458 52.7068 149.651 52.2723 149.872 51.8265L150.003 51.5445C150.246 51.0225 150.482 50.4969 150.702 49.9784C150.826 49.7238 150.922 49.4571 150.987 49.1823C150.996 49.1117 150.987 49.0404 150.961 48.9744C150.936 48.9079 150.894 48.8485 150.841 48.8013C150.775 48.7416 150.697 48.6979 150.611 48.6742C150.525 48.6504 150.434 48.6471 150.346 48.6646C150.258 48.6821 150.177 48.7201 150.107 48.7749C150.037 48.8297 149.982 48.9 149.945 48.9803C149.81 49.3309 149.539 49.9481 149.114 50.8854C148.689 51.8229 148.206 52.7907 147.696 53.7737C147.228 54.6959 146.713 55.594 146.151 56.4637C145.548 57.3819 145.073 57.8013 144.606 57.8241C144.529 57.8343 144.451 57.8284 144.376 57.8069C144.302 57.7851 144.232 57.7481 144.174 57.6982C143.922 57.5001 143.822 57.1003 143.822 56.3303C143.851 55.1169 143.96 53.9067 144.146 52.7068C144.359 51.1826 144.629 49.4337 144.945 47.5476C145.262 45.6616 145.622 43.6953 146.005 41.6987C146.39 39.6221 146.777 37.812 147.094 36.166L147.164 35.8309H149.176C149.248 35.8378 149.32 35.8282 149.386 35.8031C149.453 35.778 149.514 35.7381 149.562 35.6859C149.66 35.5832 149.715 35.4465 149.713 35.3048C149.714 35.1635 149.66 35.0272 149.562 34.9238C149.514 34.872 149.453 34.8317 149.386 34.8066C149.32 34.7815 149.248 34.7722 149.176 34.7792H147.391L147.492 34.28L148.129 31.0259C148.258 30.5538 148.323 30.0669 148.322 29.5779V29.4979C148.322 29.4255 148.322 29.3227 148.005 29.2426C147.577 29.1432 147.139 29.0946 146.7 29.0979C146.108 29.0923 145.516 29.1524 144.938 29.2769C144.803 29.3074 144.699 29.3379 144.621 29.3608C144.717 29.5154 144.764 29.6943 144.756 29.8752C144.732 30.4225 144.678 30.9682 144.594 31.5098C144.486 32.3138 144.347 33.2815 144.177 34.4209L144.123 34.7792L141.693 34.7676Z" fill="#FBB03B"/>
<path d="M52.3984 50.8282L52.7848 50.9844C53.0476 51.087 53.1286 51.2588 53.0241 51.4913C51.2575 55.5707 49.5447 58.2991 47.8862 59.6756C47.6502 59.8863 47.3998 60.0811 47.137 60.2588C46.8614 60.4942 46.5548 60.6916 46.2254 60.8455C46.0707 60.8989 45.9355 60.9369 45.8391 60.9636L45.7617 61.0017H45.3753C45.3128 61.0017 45.2508 60.9888 45.1939 60.9636C45.0714 60.9458 44.9522 60.9125 44.8384 60.8646C44.7818 60.8402 44.7295 60.8068 44.6841 60.7655C44.6244 60.7372 44.5709 60.6985 44.5256 60.6513L44.4058 60.5331L44.286 60.4149C44.2261 60.333 44.1601 60.2551 44.0891 60.1824C43.9301 59.9444 43.8005 59.6885 43.7028 59.4204C43.5554 59.0932 43.4367 58.7541 43.3472 58.407C43.1889 57.7592 43.069 57.2144 42.992 56.7723C42.9649 56.513 42.9301 56.2311 42.8916 55.9339C42.8528 55.6367 42.818 55.3623 42.7949 55.1147C42.7718 54.8671 42.7329 54.5891 42.6944 54.2764C42.6559 53.964 42.6211 53.6936 42.594 53.4572C42.5709 53.122 42.5013 52.6152 42.3972 51.933C42.347 51.7541 42.2926 51.552 42.2384 51.2739C42.1845 50.9956 42.1343 50.8167 42.0801 50.611C41.8986 50.1157 41.752 49.765 41.6476 49.5554C41.4674 49.2169 41.2268 48.9138 40.9368 48.6598C40.8052 48.5304 40.6586 48.401 40.5003 48.2788C40.1484 48.4704 39.7781 48.6272 39.3955 48.7477C38.8592 48.9342 38.3011 49.0521 37.7342 49.0983C37.589 49.1004 37.444 49.0878 37.3017 49.0601C37.1521 49.0614 37.0041 49.0343 36.8652 48.9801C36.7252 48.96 36.5927 48.9061 36.4788 48.8239C36.359 48.7398 36.2749 48.6149 36.2431 48.4733C36.1889 48.4327 36.1461 48.3792 36.1186 48.3181C36.0909 48.2567 36.0792 48.1897 36.0848 48.1226C36.1015 47.9067 36.1785 47.6994 36.3074 47.5236C36.4363 47.3483 36.6121 47.2113 36.815 47.1281C37.3423 46.8471 37.9349 46.7064 38.5341 46.7207C38.8236 46.7207 39.1906 46.7207 39.6388 46.6823C39.7701 46.5261 39.917 46.3548 40.0755 46.1755C40.5749 45.5785 41.0486 44.9551 41.4969 44.3047C41.6553 44.0954 42.0878 43.4055 42.8026 42.2397C43.753 40.6719 44.597 39.0438 45.3291 37.3661C45.7111 36.5555 46.0416 35.7217 46.3181 34.8702C46.3505 34.8085 46.3767 34.7434 46.3951 34.676L46.4764 34.4436C46.4995 34.3636 46.5226 34.2986 46.5344 34.2491C46.5457 34.1995 46.5692 34.1313 46.5923 34.055C46.6154 33.9786 46.6385 33.9024 46.6539 33.8377C46.6606 33.7667 46.6606 33.6954 46.6539 33.6244C46.7727 33.2433 46.8518 32.8514 46.8895 32.4546C47.0238 31.8123 47.0238 31.1497 46.8895 30.5075C46.8266 30.1724 46.6954 29.8535 46.5032 29.5701L46.4647 29.4939L46.3837 29.4139C46.3486 29.3595 46.3097 29.3073 46.2679 29.2577C46.231 29.2276 46.1909 29.202 46.148 29.1814L46.0707 29.0633C45.5963 28.7004 45.06 28.4241 44.4868 28.2479C44.1701 28.1413 43.9616 28.0765 43.8571 28.0498C43.7396 28.0299 43.6211 28.0172 43.5019 28.0117C43.4112 27.985 43.3145 27.985 43.2237 28.0117C42.7881 28.0282 42.3653 28.1598 41.9991 28.3927C40.9472 29.0926 39.9971 29.9311 39.1752 30.8847C38.0644 32.117 37.053 33.4329 36.1504 34.8207C35.287 36.1708 34.5364 37.588 33.906 39.058C33.7206 40.1744 33.5197 41.2527 33.3536 42.2929C32.7483 46.0094 32.3273 48.998 32.0904 51.2588C31.9551 52.5808 31.8779 53.6364 31.8509 54.4138C31.8473 54.7393 31.8614 55.0648 31.8933 55.3891C31.8858 55.5324 31.8988 55.676 31.932 55.8157L31.8509 55.896C31.836 55.8966 31.8215 55.9005 31.8082 55.9068C31.7949 55.9135 31.7831 55.9227 31.7735 55.9339C31.7624 55.9435 31.7531 55.9551 31.7465 55.9682C31.7399 55.9814 31.7359 55.9957 31.735 56.0102V56.517H31.5766C31.5322 56.4992 31.4916 56.4731 31.4568 56.4407C31.3979 56.4101 31.3444 56.3701 31.2984 56.3226C31.2085 56.2027 31.1296 56.0752 31.0628 55.9415C31.0348 55.8332 30.9947 55.7285 30.9431 55.6292C30.883 55.4122 30.8429 55.1904 30.8233 54.9661C30.7356 54.5673 30.6699 54.1641 30.6262 53.7583C30.549 53.0305 30.4833 52.215 30.4292 51.3043C30.3752 49.8489 30.388 48.2372 30.4679 46.4691C30.5503 43.7688 30.7743 40.873 31.1401 37.7814C31.377 35.6478 31.6667 33.5557 32.0092 31.5058L32.3955 29.1281C32.4416 28.8689 32.5662 28.6295 32.7532 28.4417C32.9401 28.2539 33.1804 28.1266 33.4425 28.0765C33.7119 28.0095 33.9931 28.0006 34.2663 28.0506C34.5398 28.1006 34.7989 28.2082 35.0262 28.366C35.2532 28.5022 35.4306 28.7055 35.5334 28.9471C35.6362 29.1887 35.6586 29.4561 35.5981 29.7111C35.5981 29.7924 35.361 31.1045 34.8873 33.6472C34.7289 34.5047 34.5706 35.3391 34.4119 36.143C35.4106 34.3518 36.5742 32.6555 37.889 31.0752C39.2046 29.4901 40.4437 28.3737 41.605 27.7259C42.0613 27.4279 42.5618 27.2016 43.0884 27.0553C43.2291 27.0002 43.3754 26.9607 43.525 26.9372L43.9114 26.899H44.3245C44.5216 26.899 44.6493 26.88 44.7109 26.88C45.5324 26.8168 46.3573 26.9475 47.1176 27.2611C47.2843 27.304 47.4444 27.3693 47.5926 27.4554C47.6927 27.5287 47.7989 27.5937 47.9096 27.6497C47.9866 27.7298 48.0409 27.7678 48.068 27.7678C48.0968 27.7972 48.1292 27.8227 48.1645 27.844C48.207 27.8707 48.2264 27.8974 48.2264 27.924C48.3305 28.0003 48.3884 28.046 48.4042 28.0612L48.5816 28.2365L48.7402 28.3927C48.7834 28.4644 48.8367 28.5299 48.8986 28.5871L49.0569 28.7814C49.0867 28.8167 49.1126 28.855 49.1343 28.8957C49.1547 28.939 49.1822 28.9789 49.2153 29.0138C49.2656 29.0939 49.3583 29.2462 49.4895 29.4825C49.7884 30.0571 49.9897 30.6763 50.0844 31.3153C50.158 31.7395 50.1969 32.169 50.2002 32.5994C50.2257 33.1466 50.1996 33.6951 50.1232 34.2379C50.0961 34.3941 50.0419 34.6532 49.9645 34.9999C49.8875 35.3467 49.8333 35.663 49.8062 35.8192C49.5343 36.847 49.1775 37.8511 48.7402 38.8216C47.9067 40.6997 46.8162 42.456 45.4989 44.0419C44.907 44.7639 44.2615 45.4415 43.5676 46.0689C43.1812 46.408 42.818 46.7051 42.5013 46.9644C42.5441 46.9845 42.5833 47.0116 42.6171 47.0445C42.9833 47.2123 43.3281 47.4223 43.6449 47.6693C44.1926 48.0754 44.6613 48.5763 45.0279 49.1479C45.2077 49.449 45.3663 49.7623 45.5029 50.0849C45.6502 50.4016 45.7791 50.7258 45.8893 51.0567C46.0677 51.6966 46.1969 52.3488 46.2756 53.0074C46.4071 54.2248 46.4071 55.4522 46.2756 56.6692C46.2703 56.7871 46.2562 56.9043 46.2331 57.0199C46.21 57.1761 46.1829 57.3666 46.1557 57.5875C46.1286 57.8088 46.1015 57.9952 46.0784 58.1514C46.0513 58.4374 46.0322 58.6851 46.0168 58.8908C46.0011 59.0964 46.0168 59.2186 46.0168 59.2414L45.978 59.2833L45.9395 59.3213L45.8582 59.3976H45.7925L45.9509 59.4775C46.1872 59.5267 46.4323 59.5135 46.6619 59.4395C46.9187 59.3523 47.1587 59.2236 47.3727 59.0585C48.9177 57.7882 50.5377 55.1642 52.2324 51.1861L52.3984 50.8282ZM38.7657 47.5167H38.53C38.1508 47.5042 37.7732 47.5705 37.4212 47.7113C37.133 47.8407 36.9629 47.9678 36.9114 48.0923C36.9589 48.1173 37.0122 48.1302 37.0661 48.1302C37.265 48.157 37.4671 48.1438 37.6609 48.0923C38.0674 47.9823 38.4444 47.7861 38.7657 47.5167Z" fill="#FBB03B"/>
<path d="M65.7526 50.0886L66.1389 50.283C66.1924 50.3005 66.2413 50.3302 66.2812 50.3699C66.321 50.4095 66.3508 50.4577 66.3679 50.5108C66.3853 50.5641 66.3896 50.6205 66.3806 50.6757C66.3719 50.7305 66.3498 50.7826 66.3166 50.8279C65.6026 52.1208 64.7697 53.3466 63.8289 54.4896C61.7683 57.0655 59.7804 58.5731 57.8641 59.0126C57.5136 59.107 57.1557 59.172 56.7941 59.2067L55.7278 59.3632C55.4654 59.3632 55.1872 59.3632 54.8972 59.3249C54.5882 59.2566 54.2846 59.1648 53.9897 59.0505C53.7165 58.9525 53.4627 58.8082 53.2401 58.6239C52.8594 58.3532 52.5256 58.024 52.2511 57.6486C51.8088 57.0377 51.4875 56.3499 51.3047 55.6212C51.1162 54.8955 51.0228 54.1489 51.0265 53.4001C51.0292 52.6511 51.1226 51.9052 51.3047 51.1785C51.4604 50.4594 51.684 49.7567 51.9729 49.0789C52.2434 48.4195 52.5883 47.7918 53.0007 47.208C53.3746 46.652 53.8129 46.1405 54.3063 45.6839L55.2143 44.9445C55.4252 44.7966 55.6502 44.6689 55.8862 44.5635C56.141 44.4275 56.4057 44.3102 56.6783 44.2132C56.9293 44.1257 57.1878 44.0607 57.451 44.0187C57.844 43.9689 58.241 43.956 58.6368 43.9807L58.7566 44.0187H58.9267C59.0151 44.0464 59.1078 44.0593 59.2008 44.057C59.3753 44.0805 59.5473 44.1201 59.7144 44.1749C60.0613 44.2637 60.3866 44.4195 60.6719 44.6335C60.9571 44.8475 61.1961 45.1152 61.3756 45.421C61.7522 46.0982 61.8782 46.8838 61.7311 47.6426C61.4991 49.1816 60.7134 50.5868 59.5176 51.6015C58.1486 52.8179 56.4161 53.5628 54.5805 53.7236C54.5296 54.1895 54.5025 54.6574 54.4995 55.126C54.5075 55.533 54.5608 55.9382 54.6578 56.3338C54.7051 56.5523 54.7844 56.763 54.8935 56.9588C54.9548 57.0869 55.0355 57.2051 55.133 57.3095C55.2481 57.4491 55.3776 57.5769 55.5193 57.6905C55.6555 57.8064 55.8018 57.9111 55.9558 58.0029C56.2102 58.1475 56.4911 58.241 56.7824 58.2773C57.0716 58.3285 57.3689 58.3142 57.6518 58.2353C58.54 58.0088 59.3686 57.5967 60.0817 57.0275C60.8527 56.4599 61.5681 55.822 62.2179 55.1223C62.8463 54.4289 63.4332 53.6998 63.9755 52.9388C64.555 52.1335 64.9414 51.5619 65.1345 51.2241C65.2872 50.9785 65.4251 50.7239 65.5477 50.462L65.7526 50.0886ZM54.8858 51.9594C54.8085 52.2721 54.7429 52.5805 54.6886 52.8932C55.8825 52.7396 57.0254 52.32 58.0301 51.6662C58.8691 51.1485 59.5836 50.4567 60.1242 49.6392C60.5279 49.0026 60.8021 48.2946 60.9314 47.5547C61.0281 46.9772 60.9391 46.3842 60.6766 45.8592C60.556 45.6373 60.3913 45.4418 60.1922 45.2846C59.993 45.1275 59.7633 45.0119 59.5176 44.9445C59.2467 44.8646 58.9578 44.8646 58.687 44.9445C58.4225 44.9961 58.1767 45.1173 57.9762 45.2952C57.8346 45.4088 57.7051 45.5366 57.5899 45.6763C57.4302 45.8592 57.3013 46.0154 57.2036 46.1451C57.0954 46.3241 57.0067 46.4802 56.9253 46.6097C56.7663 46.8488 56.6217 47.0967 56.4928 47.353C56.4118 47.5091 56.2146 47.9741 55.8979 48.7549C55.7666 49.0941 55.5812 49.6124 55.3455 50.3135C55.1098 51.0148 54.9669 51.5671 54.8858 51.9594Z" fill="#FBB03B"/>
<path d="M79.4013 51.4147C78.9707 51.8304 78.494 52.1959 77.9794 52.5047C77.5251 52.7922 77.0497 53.0472 76.5579 53.2667C76.1716 53.4381 75.5961 53.6478 74.8582 53.9106C74.2516 54.143 73.8037 54.326 73.5138 54.4554C73.6249 54.5888 73.7437 54.7163 73.8693 54.8364C74.0778 55.0689 74.2556 55.2898 74.4216 55.4958C74.5931 55.7348 74.7518 55.9829 74.8967 56.2388C75.0206 56.5306 75.1264 56.8298 75.2134 57.1342C75.2673 57.3525 75.3058 57.5737 75.3293 57.7972C75.3591 58.096 75.346 58.3972 75.2908 58.6927C75.19 59.3451 74.9242 59.9623 74.5181 60.4873C74.2051 60.9257 73.8321 61.3197 73.4096 61.6572L73.1739 61.8896L72.9767 62.0457C72.8612 62.0933 72.7544 62.1587 72.6601 62.2399C72.1043 62.6263 71.5087 62.9531 70.883 63.2156C70.4465 63.4128 69.9975 63.5818 69.5385 63.7222C69.0481 63.8456 68.5399 63.8842 68.036 63.8367C67.6326 63.7572 67.2617 63.5639 66.9674 63.2807C66.6732 62.9973 66.4686 62.6358 66.3788 62.2399C66.1114 61.3834 66.1114 60.4675 66.3788 59.611C66.5978 58.7142 67.0457 57.8877 67.6805 57.2105C68.2218 56.702 68.7893 56.2213 69.3802 55.7702C69.1693 55.6127 69.0404 55.5213 68.9939 55.4958C68.2252 54.9507 67.4863 54.3656 66.7806 53.7429C66.4077 53.38 66.0642 52.9887 65.7528 52.5733C65.3993 52.1335 65.1067 51.6491 64.8837 51.1327C64.7257 50.6935 64.632 50.2342 64.6055 49.7687C64.5794 49.6135 64.5794 49.4554 64.6055 49.3001V49.0789C64.6065 48.9987 64.6209 48.9188 64.6481 48.8429C64.6433 48.7636 64.6564 48.6841 64.6869 48.6104C64.6862 48.5315 64.6992 48.4529 64.7254 48.3779C64.7491 48.2307 64.7893 48.086 64.8452 47.9473C65.0109 47.4098 65.25 46.897 65.556 46.4232C65.629 46.3384 65.6949 46.2479 65.7528 46.1528C65.8255 46.0798 65.8914 46.0006 65.95 45.9164C66.0039 45.8669 66.0929 45.7602 66.2282 45.6041C66.7471 45.08 67.3815 44.6811 68.0822 44.4381L68.2831 44.3579L68.4378 44.32L68.7929 44.2017L69.1526 44.1254H69.2295C69.2663 44.1047 69.3072 44.0914 69.3494 44.0875H69.5077C69.57 44.0578 69.6363 44.0373 69.7049 44.0264H69.8632H70.2185C70.2506 44.0326 70.2834 44.0326 70.3152 44.0264C70.3483 44.0225 70.3822 44.0225 70.4157 44.0264H70.9024C72.3782 44.1026 73.7739 44.7911 75.0899 46.0917C75.1331 46.1273 75.1676 46.1723 75.1913 46.2225C75.2151 46.273 75.2275 46.3278 75.2275 46.3833C75.2275 46.4388 75.2151 46.4935 75.1913 46.5441C75.1676 46.5942 75.1331 46.6388 75.0899 46.6748C75.0105 46.7504 74.9048 46.7927 74.7943 46.7927C74.6842 46.7927 74.578 46.7504 74.499 46.6748C73.34 45.5086 72.127 44.8954 70.8636 44.8459H70.5857L70.4271 44.8839H70.3075L69.9945 44.9601C69.8994 44.9783 69.8064 45.0051 69.7163 45.0401L69.5968 45.1163L69.4806 45.1543L69.2413 45.3105C69.1596 45.3577 69.0809 45.4098 69.0056 45.467L68.8857 45.5848L68.8087 45.6611C68.4331 46.0356 68.1257 46.4714 67.9008 46.9492C67.8733 47.0321 67.8328 47.1107 67.7809 47.1817C67.7575 47.2451 67.7444 47.3121 67.7424 47.3798C67.7049 47.4395 67.6775 47.5053 67.6614 47.5739C67.5519 47.8863 67.4984 48.2151 67.5027 48.5457V48.896C67.5091 48.9373 67.5221 48.9772 67.5415 49.0142V49.2467C67.5686 49.2467 67.584 49.2734 67.584 49.3266C67.6052 49.347 67.6189 49.3741 67.6225 49.4029C67.6728 49.5095 67.7538 49.666 67.8583 49.8717C68.2239 50.3647 68.6641 50.7992 69.1639 51.1594C69.638 51.5481 70.2958 52.0282 71.1381 52.5997C71.8747 53.1435 72.4411 53.5728 72.8378 53.8878L74.5375 53.2248C75.2767 52.9401 75.8291 52.7192 76.1947 52.5617C76.645 52.363 77.0808 52.1351 77.5003 51.8796C77.9673 51.6052 78.4049 51.285 78.8063 50.9234C78.8374 50.8768 78.8799 50.8388 78.9298 50.8128C78.9797 50.7863 79.0357 50.7725 79.0919 50.7725C79.1485 50.7725 79.2044 50.7863 79.2543 50.8128C79.3038 50.8388 79.3463 50.8768 79.3778 50.9234C79.4454 50.9864 79.4856 51.0726 79.49 51.1644C79.4943 51.2562 79.4625 51.346 79.4013 51.4147ZM72.1307 59.1688C72.2265 58.9344 72.2674 58.6818 72.2506 58.4295C72.2081 58.3206 72.1552 58.2159 72.0922 58.1172C72.0574 58.028 72.0035 57.9475 71.9339 57.8811C71.8797 57.8048 71.8023 57.7018 71.6942 57.5723L71.3815 57.26C71.2456 57.1646 71.1167 57.0599 70.9951 56.9473C70.7595 56.7644 70.4542 56.5435 70.0873 56.2843C69.4445 56.732 68.8375 57.2276 68.2717 57.7666C67.6969 58.3645 67.2965 59.1044 67.1127 59.9081C66.8978 60.5946 66.8978 61.3289 67.1127 62.0151C67.1693 62.2627 67.2958 62.4892 67.4776 62.6688C67.6597 62.8481 67.8894 62.9729 68.1402 63.0288C68.4953 63.0717 68.8553 63.0023 69.168 62.8306C69.5074 62.6319 69.8137 62.3826 70.0755 62.0913C70.4686 61.67 70.8375 61.2272 71.1806 60.7653C71.2362 60.6676 71.3039 60.5767 71.3815 60.4948C71.5399 60.2588 71.6286 60.1138 71.6557 60.1138C71.8421 59.8157 71.9965 59.4991 72.1153 59.1688H72.1307Z" fill="#FBB03B"/>
<path d="M92.4623 50.0887L92.849 50.2832C92.9022 50.3007 92.9514 50.3304 92.9907 50.37C93.0308 50.4097 93.0603 50.4579 93.0775 50.511C93.0947 50.5642 93.0996 50.6207 93.0906 50.6754C93.0816 50.7306 93.0595 50.7828 93.0267 50.828C92.3091 52.1204 91.4752 53.3457 90.5349 54.4898C88.4747 57.0656 86.4858 58.5732 84.5698 59.0128C84.2209 59.1068 83.8637 59.1719 83.5041 59.2069L82.4343 59.3631C82.1714 59.3631 81.8969 59.3631 81.607 59.3251C81.2963 59.257 80.9916 59.1656 80.6953 59.0507C80.4225 58.9526 80.1688 58.8084 79.9461 58.6241C79.5655 58.3534 79.2313 58.0241 78.9572 57.6484C78.5162 57.0369 78.1952 56.3494 78.0107 55.6213C77.8219 54.8956 77.7285 54.1491 77.7325 53.3998C77.7352 52.6513 77.8286 51.9054 78.0107 51.1787C78.1691 50.4585 78.3941 49.7546 78.6827 49.0754C78.9501 48.414 79.295 47.7863 79.7105 47.2042C80.0817 46.6472 80.5186 46.1357 81.0121 45.68L81.9199 44.941C82.1312 44.7935 82.3565 44.666 82.5924 44.56C82.8406 44.4253 83.0994 44.3081 83.3648 44.2094C83.6163 44.1219 83.8744 44.0568 84.1373 44.0153C84.5305 43.965 84.9278 43.9525 85.3234 43.9769L85.443 44.0153H85.6019C85.6904 44.0426 85.783 44.0555 85.8755 44.0532C86.0508 44.0763 86.2229 44.1159 86.39 44.1714C86.7365 44.2603 87.0617 44.416 87.3467 44.6297C87.6318 44.8437 87.8718 45.1115 88.0504 45.4172C88.4288 46.0938 88.555 46.88 88.4059 47.6387C88.1741 49.1778 87.3885 50.583 86.1925 51.5976C84.8238 52.8144 83.0913 53.5593 81.2555 53.7201C81.2046 54.1857 81.1775 54.6539 81.1744 55.1221C81.1828 55.5292 81.2357 55.9344 81.3328 56.3303C81.3796 56.5492 81.4603 56.7601 81.5725 56.955C81.6324 57.0831 81.7117 57.2013 81.8078 57.3056C81.924 57.4443 82.0534 57.5721 82.1943 57.6867C82.3311 57.8016 82.4777 57.9063 82.6309 57.9991C82.8865 58.1443 83.1691 58.2378 83.4615 58.2734C83.7507 58.325 84.048 58.3104 84.3306 58.2315C85.2186 58.0037 86.0467 57.5919 86.7602 57.0237C87.5294 56.4551 88.2437 55.8175 88.8925 55.1185C89.5216 54.4251 90.1081 53.696 90.6504 52.9353C91.2303 52.13 91.6161 51.5584 91.8095 51.2206C91.9618 50.9746 92.1003 50.72 92.2231 50.4585L92.4623 50.0887ZM81.5993 51.9596C81.5182 52.2722 81.4526 52.5807 81.3984 52.8934C82.5924 52.7398 83.7351 52.3201 84.7402 51.6663C85.5798 51.1496 86.2949 50.4575 86.8339 49.639C87.2378 49.0028 87.5122 48.2948 87.6408 47.5548C87.7375 46.9773 87.649 46.3843 87.3861 45.8593C87.2665 45.6371 87.1018 45.4413 86.9028 45.2841C86.7037 45.1266 86.4735 45.0114 86.227 44.9447C85.9575 44.8648 85.6699 44.8648 85.4004 44.9447C85.1342 44.9956 84.8876 45.1167 84.6861 45.2954C84.5444 45.4089 84.415 45.5367 84.2995 45.6764C84.1398 45.8593 84.0112 46.0155 83.9137 46.145C83.8088 46.3242 83.7163 46.4804 83.6352 46.6098C83.4763 46.8489 83.3313 47.0969 83.2027 47.3531C83.1216 47.5093 82.9241 47.9742 82.608 48.7551C82.4761 49.0942 82.2909 49.6126 82.055 50.3135C81.8196 51.0146 81.6766 51.5673 81.5993 51.9596Z" fill="#FBB03B"/>
<path d="M105.383 50.7101L105.77 50.8667C105.823 50.8786 105.872 50.903 105.914 50.9373C105.956 50.972 105.988 51.0159 106.01 51.0654C106.03 51.115 106.039 51.1685 106.035 51.222C106.031 51.2758 106.015 51.3276 105.986 51.3732C105.832 51.7886 105.599 52.3182 105.318 52.9545C105.036 53.5911 104.572 54.5437 103.954 55.8162C103.378 57.0115 102.717 58.1648 101.976 59.2684C101.476 60.08 100.82 60.7879 100.045 61.3525C99.9071 61.4849 99.7465 61.5909 99.5696 61.6651C99.4721 61.7134 99.3656 61.7395 99.2567 61.7414C99.2403 61.7553 99.2214 61.7659 99.201 61.7725C99.1805 61.7791 99.1584 61.7814 99.1371 61.7794H99.056C98.9757 61.7841 98.8946 61.7712 98.82 61.7414C98.6398 61.718 98.4727 61.6361 98.3449 61.509C98.2679 61.4288 98.1754 61.3261 98.0705 61.1963C97.9575 61.0256 97.8641 60.843 97.7928 60.6515C97.706 60.318 97.6405 59.9795 97.5954 59.6378C97.5463 59.3153 97.5201 58.989 97.5184 58.6625C97.5045 57.4507 97.5831 56.2392 97.7543 55.0389C97.7814 54.6998 97.8272 54.3188 97.8928 53.8959C97.9583 53.4729 98.0247 53.0459 98.0902 52.6309C98.1557 52.2155 98.2016 51.8688 98.2294 51.5373C98.3064 50.8628 98.3605 50.3447 98.3875 49.9788C98.1655 50.1063 97.9542 50.2503 97.7543 50.4094L97.3407 50.7181C97.167 50.8512 96.9893 50.9809 96.8033 51.0991C96.6182 51.217 96.4486 51.358 96.2897 51.4801C96.012 51.6684 95.722 51.8378 95.4206 51.9867C95.0675 52.1528 94.6973 52.2806 94.3155 52.3678C94.1058 52.3938 93.8937 52.4067 93.6823 52.406H93.3268C93.1786 52.3856 93.0336 52.3473 92.8943 52.2918C92.6265 52.1864 92.3848 52.0266 92.1833 51.8229C92.0211 51.6525 91.8901 51.4554 91.7975 51.2398C91.6312 50.8954 91.5255 50.5256 91.4846 50.1466C91.428 49.8114 91.401 49.4723 91.4035 49.1329C91.428 48.4705 91.5485 47.8151 91.7582 47.1857C91.9589 46.5267 92.2955 45.9155 92.7477 45.3912C92.9926 45.1184 93.2875 44.8936 93.6168 44.7282C93.9641 44.5772 94.3426 44.5106 94.7218 44.5337C94.9389 44.5099 95.1585 44.5588 95.3444 44.672C95.5303 44.785 95.6729 44.9563 95.7491 45.1587C95.9891 45.7035 95.8342 46.5112 95.2969 47.5744C94.7792 48.6039 94.164 49.5826 93.4579 50.4969C93.4587 50.512 93.4628 50.5273 93.4694 50.5408C93.4759 50.5547 93.4849 50.5669 93.4972 50.5771H93.6168C93.7208 50.5504 93.8134 50.5236 93.8912 50.4969C94.3483 50.3757 94.7694 50.1482 95.1191 49.8338L95.8113 49.2511C96.1119 48.9919 96.3282 48.8089 96.4601 48.7059C96.7763 48.447 97.0548 48.2374 97.2907 48.0812C97.656 47.8603 98.0566 47.7019 98.4768 47.6123C98.5931 47.5869 98.7119 47.5744 98.8315 47.5744H99.187C99.2812 47.5744 99.3746 47.5869 99.4655 47.6123C99.622 47.6662 99.7686 47.7461 99.8981 47.8488C100.017 47.9392 100.123 48.0442 100.214 48.1611C100.324 48.2995 100.405 48.4573 100.454 48.626C100.535 48.8525 100.587 49.0879 100.609 49.327C100.639 49.5086 100.652 49.6922 100.651 49.8758C100.651 50.135 100.651 50.4589 100.609 50.8475C100.581 51.1332 100.558 51.4459 100.531 51.785C100.477 52.2535 100.4 52.8478 100.295 53.5756C100.187 54.1738 100.095 54.7606 100.018 55.3322C99.9365 55.6676 99.8325 56.22 99.7006 56.9861C99.5696 57.7518 99.4655 58.3461 99.3844 58.7615C99.3033 59.1769 99.2911 59.4473 99.2681 59.577C99.2411 59.8666 99.2255 60.1103 99.2255 60.3391C99.2214 60.4187 99.2362 60.4983 99.2681 60.5716V60.6515H99.187V60.6898H99.3066C99.4139 60.7122 99.5253 60.6987 99.6236 60.6515C100.44 60.1282 101.401 58.8417 102.505 56.7916C103.521 54.9376 104.431 53.0294 105.232 51.076L105.383 50.7101ZM93.095 49.6585C93.6479 48.8806 94.1362 48.0601 94.5556 47.2049C94.9774 46.3487 95.1232 45.7772 94.9913 45.4903C94.9651 45.41 94.8726 45.372 94.7137 45.372C94.4868 45.3941 94.2697 45.4744 94.0837 45.6045C93.9076 45.756 93.7487 45.9261 93.6094 46.1113C93.3432 46.5548 93.1687 47.0454 93.095 47.5553C92.9902 48.068 92.9648 48.5934 93.018 49.1137C93.0172 49.2983 93.0426 49.4816 93.095 49.6585Z" fill="#FBB03B"/>
<path d="M116.606 50.5535L116.942 50.7897C116.992 50.8181 117.036 50.858 117.068 50.9059C117.099 50.9541 117.118 51.0093 117.124 51.0663C117.13 51.1235 117.122 51.1813 117.1 51.2344C117.078 51.2879 117.044 51.3351 117 51.3728C116.859 51.5765 116.706 51.7723 116.544 51.9595C116.193 52.3218 115.805 52.6473 115.385 52.9309C114.888 53.315 114.316 53.594 113.705 53.7504C113.472 53.8033 113.233 53.83 112.994 53.8304C112.926 53.8271 112.86 53.8129 112.797 53.7884C111.9 56.4659 110.926 58.2325 109.872 59.0887C109.853 59.1118 109.829 59.1309 109.802 59.1444C109.775 59.1583 109.744 59.1666 109.714 59.1685C109.549 59.3604 109.348 59.5195 109.123 59.6374C108.988 59.7147 108.84 59.7675 108.686 59.7935C108.593 59.7982 108.5 59.8107 108.408 59.8316L108.173 59.7935C107.833 59.7579 107.507 59.6371 107.226 59.4429C106.97 59.2709 106.743 59.0599 106.554 58.8182C106.236 58.4097 105.971 57.9643 105.762 57.4922C105.566 57.0741 105.395 56.6453 105.248 56.2081C104.97 55.3839 104.771 54.5353 104.658 53.6742C104.522 52.9177 104.43 52.1543 104.379 51.3879C104.302 50.2333 104.302 49.075 104.379 47.9203L104.46 46.5946C104.511 46.3622 104.708 46.1904 105.052 46.0878C105.428 45.9821 105.82 45.9431 106.211 45.9735C106.588 45.9825 106.959 46.0749 107.296 46.244C107.585 46.4001 107.733 46.5831 107.733 46.7888C107.706 46.8845 107.692 46.9829 107.69 47.0823C107.69 47.1813 107.677 47.2797 107.652 47.3755C107.597 47.8939 107.547 48.4004 107.493 48.8997C107.362 50.6143 107.296 52.1474 107.296 53.4988C107.289 54.3194 107.342 55.1396 107.454 55.9528C107.515 56.6347 107.675 57.3046 107.929 57.9416C107.933 57.9822 107.946 58.0215 107.968 58.0562C107.98 58.066 107.989 58.0782 107.996 58.0921C108.002 58.1056 108.006 58.1209 108.007 58.136C108.043 58.1909 108.082 58.243 108.127 58.2922L108.285 58.5247C108.335 58.5514 108.401 58.5894 108.482 58.6429C108.544 58.6663 108.612 58.6792 108.679 58.6809C108.789 58.6732 108.895 58.6475 108.996 58.6046C109.08 58.6026 109.163 58.5745 109.231 58.5247L109.313 58.4484L109.351 58.4867C110.275 57.7246 111.177 56.0618 112.055 53.4988C111.239 52.8738 110.831 51.6039 110.831 49.6885C110.806 48.4552 111.008 47.2276 111.425 46.0647C111.923 44.7921 112.584 44.1598 113.4 44.1598C113.588 44.1568 113.773 44.2166 113.923 44.3292C114.074 44.4415 114.182 44.6006 114.23 44.7809C114.419 45.7876 114.426 46.8198 114.25 47.8288C114.054 49.2219 113.77 50.6015 113.4 51.9595C113.295 52.3406 113.191 52.6872 113.082 53.0531C113.245 53.0525 113.405 53.0254 113.558 52.9729C114.07 52.8391 114.548 52.6004 114.96 52.2719C115.316 52.0246 115.647 51.7439 115.95 51.4335C116.098 51.2671 116.236 51.0915 116.362 50.9079L116.606 50.5535ZM112.337 52.6225C113.13 50.0237 113.539 47.8645 113.562 46.1449C113.601 45.7354 113.547 45.3227 113.403 44.9371C112.956 44.9598 112.562 45.4172 112.217 46.301C111.83 47.3755 111.643 48.5104 111.665 49.6505C111.665 51.0601 111.889 52.051 112.337 52.6225Z" fill="#FBB03B"/>
<path d="M130.277 50.0886L130.663 50.283C130.717 50.3005 130.765 50.3302 130.805 50.3699C130.846 50.4095 130.875 50.4577 130.892 50.5108C130.909 50.5641 130.914 50.6205 130.905 50.6757C130.896 50.7305 130.874 50.783 130.841 50.8279C130.124 52.1192 129.292 53.3449 128.353 54.4896C126.293 57.0655 124.303 58.5731 122.385 59.0126C122.036 59.1073 121.679 59.1724 121.319 59.207L120.252 59.3632C119.985 59.3632 119.712 59.3632 119.422 59.3249C119.112 59.2573 118.809 59.1654 118.514 59.0505C118.232 58.9554 117.971 58.8111 117.742 58.6239C117.362 58.3522 117.031 58.023 116.756 57.6486C116.314 57.037 115.992 56.3496 115.806 55.6212C115.618 54.8958 115.524 54.1492 115.527 53.4001C115.531 52.6511 115.624 51.9052 115.806 51.1785C115.967 50.4597 116.194 49.7567 116.486 49.0789C116.755 48.4185 117.099 47.7908 117.513 47.208C117.885 46.651 118.322 46.1395 118.815 45.6839L119.727 44.9449C119.938 44.7966 120.163 44.6689 120.399 44.5639C120.647 44.4282 120.906 44.311 121.172 44.2132C121.429 44.1244 121.694 44.0593 121.963 44.0187C122.357 43.9689 122.754 43.956 123.15 43.9807L123.265 44.0187H123.44C123.53 44.0464 123.623 44.0593 123.717 44.057C123.892 44.0811 124.064 44.1207 124.232 44.1752C124.577 44.2644 124.902 44.4205 125.187 44.6342C125.471 44.8482 125.709 45.1156 125.889 45.421C126.267 46.0976 126.393 46.8838 126.244 47.6426C126.016 49.1819 125.231 50.5882 124.034 51.6015C122.663 52.8176 120.93 53.5621 119.093 53.7239C119.043 54.1895 119.018 54.6577 119.016 55.126C119.027 55.5288 119.085 55.9293 119.19 56.3186C119.236 56.5378 119.315 56.7485 119.426 56.9436C119.486 57.0714 119.565 57.1896 119.661 57.2939C119.779 57.432 119.907 57.5598 120.047 57.675C120.184 57.7902 120.33 57.8949 120.484 57.9877C120.74 58.1323 121.022 58.2254 121.315 58.262C121.604 58.3132 121.901 58.2991 122.184 58.2201C123.072 57.992 123.9 57.5802 124.613 57.0123C125.384 56.4457 126.099 55.8077 126.746 55.1071C127.376 54.4144 127.963 53.6853 128.504 52.9236C129.084 52.1182 129.469 51.5467 129.663 51.2089C129.815 50.9623 129.954 50.7077 130.08 50.4468L130.277 50.0886ZM119.41 51.9598C119.329 52.2721 119.264 52.5808 119.214 52.8932C120.405 52.739 121.547 52.3193 122.551 51.6662C123.391 51.1508 124.106 50.4583 124.645 49.6392C125.049 49.0029 125.324 48.295 125.456 47.5547C125.55 46.9769 125.459 46.3845 125.197 45.8592C125.077 45.637 124.912 45.4415 124.713 45.2843C124.514 45.1271 124.284 45.0116 124.038 44.9449C123.767 44.8646 123.478 44.8646 123.208 44.9449C122.943 44.9954 122.697 45.1166 122.497 45.2952C122.354 45.4078 122.225 45.5356 122.11 45.6763C121.954 45.8592 121.824 46.0154 121.724 46.1451L121.45 46.6101C121.289 46.8488 121.144 47.0967 121.013 47.353C120.936 47.5091 120.736 47.974 120.422 48.7552C120.287 49.0944 120.106 49.6124 119.866 50.3135C119.626 51.0148 119.487 51.5671 119.41 51.9598Z" fill="#FBB03B"/>
<path d="M16.9009 55.751L16.1939 54.6267C15.6183 53.7048 2.00879 31.9323 2.00879 24.1249C2.00976 21.2162 2.88492 18.3729 4.52364 15.9546C6.16237 13.5363 8.49116 11.6514 11.2156 10.5381C13.9401 9.42481 16.938 9.13317 19.8305 9.70001C22.723 10.2668 25.3801 11.6667 27.4663 13.7227L26.2572 14.9153C24.4105 13.0937 22.0577 11.8532 19.4963 11.3505C16.935 10.848 14.2799 11.1059 11.8671 12.0917C9.45432 13.0775 7.39209 14.7469 5.94124 16.8888C4.4904 19.0308 3.71608 21.5489 3.71625 24.1249C3.71625 30.4882 14.1001 47.9433 16.9395 52.592C19.2341 49.0029 26.2687 37.6708 28.7256 29.8747L30.3404 30.3739C27.3426 39.9342 18.0327 54.0323 17.6348 54.6458L16.9009 55.751Z" fill="#FBB03B"/>
<g opacity="0.91">
<path opacity="0.91" d="M17.767 34.1124C15.7593 34.1124 13.7875 33.5865 12.0536 32.5879C10.3197 31.5894 8.88599 30.1544 7.89914 28.4297C6.91231 26.705 6.40779 24.7527 6.43728 22.7725C6.46675 20.7923 7.02918 18.8555 8.06694 17.1602C7.09309 18.3537 6.37853 19.7322 5.96772 21.2098C5.55691 22.6874 5.45865 24.2326 5.67901 25.7492C5.89936 27.2659 6.43364 28.7216 7.24863 30.026C8.0636 31.3303 9.14189 32.4553 10.4164 33.3312C11.691 34.2069 13.1345 34.8147 14.6574 35.1169C16.1802 35.419 17.7498 35.4091 19.2685 35.0875C20.7872 34.7659 22.2227 34.1396 23.4856 33.2474C24.7485 32.3554 25.8119 31.2166 26.6096 29.9019C25.5485 31.2125 24.2012 32.27 22.6682 32.9957C21.1351 33.7215 19.4559 34.0966 17.7555 34.0933" fill="white"/>
<path opacity="0.91" d="M16.9208 35.5108C13.8605 35.5074 10.9263 34.3072 8.76224 32.1726C6.59819 30.0381 5.38109 27.1439 5.37801 24.1253C5.3682 21.5443 6.25738 19.0383 7.89675 17.0266L8.24823 17.2666C6.79474 19.6504 6.31396 22.4899 6.90324 25.2102C7.49256 27.9305 9.10792 30.3282 11.4223 31.9179C13.7365 33.5075 16.5768 34.1702 19.3679 33.772C22.159 33.3734 24.6923 31.9438 26.4548 29.7721L26.8064 30.0123C25.7837 31.6958 24.3346 33.0878 22.6014 34.052C20.8682 35.0161 18.9105 35.5187 16.9208 35.5108ZM6.60261 20.0253C5.66699 22.3263 5.54854 24.8717 6.26645 27.2475C6.98439 29.6233 8.49651 31.6894 10.5565 33.1096C12.6166 34.5297 15.1034 35.2202 17.612 35.0689C20.1207 34.9174 22.5035 33.9331 24.3726 32.2756C22.6413 33.4662 20.6125 34.1662 18.5063 34.2993C16.4002 34.4327 14.2973 33.9942 12.426 33.0317C10.5546 32.069 8.98644 30.6191 7.89172 28.8394C6.79698 27.0597 6.21754 25.0182 6.2163 22.9364C6.21831 21.9537 6.34814 20.9754 6.60261 20.0253Z" fill="#FBB03B"/>
</g>
<g opacity="0.91">
<path opacity="0.91" d="M11.9756 25.4546C11.9756 25.4546 13.7295 20.0439 18.8364 20.0439C18.8364 20.0439 20.54 25.085 22.8115 25.6451C22.8115 25.6451 30.7616 9.12343 41.2652 6.87915C41.2652 6.87915 37.8582 13.0405 40.1297 16.6832C37.1438 16.6659 34.2261 17.5618 31.7776 19.2475C28.0227 21.8119 24.3528 27.3293 23.9472 30.1261C23.9472 30.1261 17.3723 25.4546 11.9756 25.4546Z" fill="#F2F2F2"/>
<path opacity="0.91" d="M24.2712 30.8733L23.6957 30.4656C23.6338 30.4085 17.167 25.8627 11.9751 25.8627H11.4111L11.5888 25.314C11.6081 25.2569 13.4972 19.6213 18.8552 19.6213H19.1372L19.2338 19.9109C19.6587 21.1646 21.0379 24.3767 22.5869 25.1197C23.827 22.6583 31.302 8.57515 41.1683 6.468L42.0799 6.27368L41.6317 7.08149C41.6009 7.14244 38.3712 13.0752 40.473 16.4626L40.9055 17.1523L40.0826 17.1027C37.1941 17.1 34.3739 17.9696 32.0012 19.5947C28.3429 22.0943 24.7386 27.5088 24.3523 30.1837L24.2712 30.8733ZM12.5893 25.0396C17.0705 25.3026 22.0384 28.3471 23.6608 29.4178C24.4605 26.4266 27.8793 21.416 31.5337 18.9012C33.862 17.3097 36.5965 16.3948 39.4261 16.2606C38.1124 13.2771 39.6695 9.24577 40.473 7.4968C30.7263 10.3927 23.2745 25.6684 23.1973 25.8361L23.0467 26.1485L22.7067 26.0647C20.5318 25.516 18.9673 21.6446 18.5346 20.4711C14.8878 20.6349 13.1495 23.7594 12.5893 25.0396Z" fill="#FBB03B"/>
</g>
</g>
</svg>
